<?xml version="1.0" encoding="UTF-8"?>
<svg id="Ebene_2" data-name="Ebene 2" xmlns="http://www.w3.org/2000/svg" viewBox="0 0 1012.58 961.47">
  <defs>
    <style>
      .cls-1 {
        fill: #d7d4d2;
      }
    </style>
  </defs>
  <g id="Ebene_1-2" data-name="Ebene 1">
    <g id="lWlcTe">
      <g>
        <path class="cls-1" d="m41.06,0c.49,3.97,1.18,7.93,1.38,11.92.12,2.4-.74,4.84-.78,7.28-.06,2.89.23,5.78.47,8.67.35,4.12,1.18,8.22-.34,12.33-.43,1.17-.19,2.6-.21,3.91-.18,8.81-.32,17.61-.53,26.42-.1,3.89-.24,7.79-.54,11.67-.39,5.14-1.09,10.26-1.39,15.41-.15,2.62.53,5.29.4,7.92-.36,7.27-.94,14.52-1.44,21.78-.33,4.75-.66,9.51-1.01,14.26-.66,8.9-1.31,17.81-2.01,26.71-.64,8.13-1.27,16.26-2.03,24.38-.36,3.83-1.07,7.62-1.55,11.44-.36,2.86-.67,5.74-.9,8.61-.25,3.14-.26,6.29-.6,9.42-.31,2.84-1.1,5.63-1.35,8.47-.35,3.96-.25,7.95-.59,11.91-.48,5.55-1.23,11.07-1.76,16.62-.33,3.38-.41,6.77-.71,10.15-.48,5.43-.98,10.86-1.6,16.28-.34,3-.93,5.98-1.4,8.96-.85,5.31-1.69,10.63-2.53,15.95-.25,1.56-.45,3.12-.69,4.68-.94,5.91-1.5,11.91-2.92,17.7-1.88,7.68-2.37,15.49-3.35,23.27-.72,5.67-1.22,11.35-3.31,16.81-.95,2.47-.82,5.36-1.14,8.07-.54,4.59-.62,9.28-1.66,13.75-2.29,9.77-1.05,19.62-1.27,29.43-.08,3.61.45,7.26.97,10.85.31,2.15,1.16,4.22,1.75,6.33,1.23,4.4,2.37,8.82,3.71,13.18.65,2.11,1.46,4.23,2.56,6.13,2.29,3.97,4.81,7.8,7.26,11.67.2.32.61.5,1.01.8.22-.27.43-.44.52-.66,1.14-2.7,2.15-5.46,3.43-8.09,1.2-2.48,2.78-4.77,3.98-7.25.58-1.18.5-2.68,1.04-3.89,1.38-3.08,2.95-6.07,4.41-9.12.2-.43.2-.96.25-1.45.08-.73-.06-1.55.24-2.17,1.33-2.84,2.88-5.57,4.12-8.44.6-1.39.46-3.1,1.1-4.46,1.38-2.96,3.06-5.77,4.58-8.67.26-.49.23-1.12.47-1.63,1.4-2.95,2.92-5.84,4.23-8.83,1.04-2.38,1.84-4.88,2.75-7.32.37-1,.46-2.35,1.18-2.94,1.92-1.57,1.74-3.79,2.4-5.78.7-2.12,1.74-4.13,2.75-6.13,1.31-2.57,2.74-5.08,4.11-7.62.27-.51.81-1.08.73-1.54-.67-3.93,2.51-6.02,4.1-8.87,1.05-1.88,2.14-3.74,3.04-5.69,1.08-2.34,1.91-4.8,2.95-7.15.85-1.91,1.87-3.74,2.77-5.63,1.85-3.89,3.57-7.84,5.53-11.67,1.24-2.42,2.83-4.66,4.26-6.98.04-.07.18-.14.17-.17-.95-3.18,2.94-4.63,2.73-7.64-.05-.68,1.3-1.36,1.68-2.19,1.25-2.71,2.27-5.53,3.55-8.24,1.21-2.56,2.63-5.02,3.96-7.51.11-.21.36-.36.45-.57,1.24-3.12,2.34-6.3,3.74-9.34,1-2.17,2.56-4.08,3.58-6.25,1.33-2.82,2.32-5.79,3.55-8.65,1.34-3.12,2.83-6.17,4.2-9.28,1.13-2.59,2.1-5.25,3.28-7.82,1.47-3.19,3.13-6.3,4.61-9.48,1.15-2.48,2.13-5.03,3.22-7.54.55-1.26,1.21-2.47,1.78-3.72.26-.58.42-1.21.62-1.82.38-1.15.7-2.32,1.16-3.44,1.37-3.3,2.68-6.63,4.24-9.85,2-4.12,4.24-8.12,6.34-12.19,1-1.95,1.7-4.09,2.9-5.89,2.48-3.73,5.26-7.26,7.82-10.94.92-1.32,1.42-2.94,2.37-4.24,3.05-4.14,6.18-8.24,9.37-12.27,1.17-1.48,2.7-2.68,3.95-4.11,3.58-4.1,7.06-8.27,10.66-12.35.8-.9,2.06-1.38,2.88-2.26,3.26-3.51,6.38-7.15,9.66-10.65,1.82-1.95,3.83-3.73,5.77-5.58.75-.72,1.51-1.44,2.32-2.1,1.47-1.19,2.38-3.06,4.65-3.28,1.09-.1,2.29-.68,3.14-1.4,4.9-4.12,10.61-3.59,16.06-2.26,3.66.89,7.12,2.93,9.51,6.29,2.27,3.19,5.14,6,7.08,9.37,1.68,2.91,2.46,6.35,3.57,9.58.99,2.87,1.94,5.76,2.8,8.68.34,1.15.39,2.38.53,3.58.57,4.79,1.25,9.57,1.64,14.37.76,9.45,1.36,18.9,2.02,28.36.05.75.02,1.5.03,2.25.16,7.72.32,15.45.48,23.17,0,.17-.05.35.01.5,2.38,5.74.68,11.72.89,17.57.44,12.21.56,24.44.56,36.66,0,13.22-.5,26.44-.37,39.66.05,4.38,1.18,8.79,2.25,13.09.42,1.71,1.83,3.29,3.07,4.67,2.82,3.16,6.53,5.15,10.28,6.9,2.34,1.09,5.18,1.07,7.58,2.07,3.91,1.62,7.93,1.57,11.98,1.49,6.39-.13,12.82.04,19.16-.66,4.32-.47,8.51-2.18,12.76-3.35.64-.18,1.25-.54,1.89-.61,3.11-.34,4.94-2.52,7.01-4.52,2.52-2.43,5.57-4.33,7.96-6.86,3.33-3.52,6.25-7.42,9.37-11.14.67-.8,1.47-1.48,2.16-2.26.74-.84,1.53-1.65,2.09-2.6,1.67-2.84,3.25-5.65,6.05-7.72,1.24-.91,1.48-3.09,2.42-4.52,1.09-1.66,2.37-3.23,3.72-4.69,1.36-1.46,2.79-2.91,4.41-4.03,2.79-1.93,3.12-5.32,5.02-7.77,2.49-3.2,4.86-6.5,7.34-9.71,1.58-2.05,3.43-3.91,4.87-6.05,2.01-2.98,3.66-6.2,5.62-9.2,2.02-3.09,4.3-6.02,6.35-9.09,2.26-3.39,4.32-6.9,6.59-10.29,1.3-1.95,2.83-3.75,4.26-5.62.15-.2.37-.36.46-.57,2.93-6.73,7.68-12.33,11.45-18.53,2-3.3,3.67-6.81,5.7-10.1,2.18-3.53,4.65-6.89,6.91-10.37,1.32-2.04,2.48-4.19,3.68-6.3,1.95-3.42,4-6.8,5.79-10.31,1.8-3.52,3.44-7.13,4.94-10.79,2.12-5.17,4.11-10.41,6.03-15.66.72-1.97,1.06-4.09,1.66-6.11.85-2.89,1.87-5.73,2.67-8.64.86-3.15,1.55-6.35,2.31-9.53,1.1-4.59,2.28-9.16,3.3-13.77.83-3.78,1.39-7.63,2.23-11.41.87-3.88,1.91-7.72,2.93-11.56.44-1.66,1.11-3.25,1.51-4.92,1.55-6.49,3.7-12.74,6.59-18.77,1.33-2.78,2.12-5.82,3.31-8.68,1.67-4.01,3.38-8.02,5.25-11.94,2.67-5.61,5.46-11.14,8.99-16.32,3.02-4.44,5.23-9.43,7.98-14.07,1.75-2.95,3.86-5.68,5.76-8.53,1.71-2.58,3.34-5.21,5.05-7.79,1.21-1.83,2.48-3.63,3.73-5.43.79-1.15,1.92-2.18,2.33-3.45,1.07-3.3,4.11-5,5.82-7.74.9-1.44,1.78-2.9,2.67-4.35,2.5,0,5,0,7.5,0-.34.77-.55,1.62-1.04,2.28-1.75,2.38-3.6,4.69-5.4,7.03-.3.39-.56.82-.85,1.22-3.97,5.45-8.1,10.79-11.86,16.37-3.85,5.72-7.39,11.64-10.95,17.54-3.31,5.49-6.51,11.04-9.66,16.62-2.31,4.08-4.73,8.13-6.62,12.41-2.31,5.22-4.1,10.67-6.18,16-1.7,4.36-3.52,8.68-5.22,13.05-.53,1.37-.84,2.82-1.21,4.25-1.22,4.77-2.45,9.54-3.61,14.32-1.02,4.21-1.9,8.44-2.92,12.65-1.25,5.16-2.6,10.28-3.85,15.44-.6,2.47-1.12,4.97-1.57,7.47-.61,3.37-.98,6.77-2.61,9.92-.88,1.71-1.33,3.69-1.7,5.6-1.09,5.72-4.15,10.64-6.28,15.93-1.96,4.87-3.86,9.8-6.29,14.44-3.02,5.77-6.52,11.28-9.88,16.87-2.51,4.16-5.19,8.21-7.67,12.39-2.62,4.41-5.02,8.95-7.66,13.35-1.06,1.76-2.54,3.26-3.72,4.95-.45.65-.64,1.49-.9,2.26-.1.29.08.77-.09.92-4.6,4.23-7.11,10.02-11.06,14.73-.27.32-.63.58-.83.93-2.02,3.41-3.84,6.96-6.05,10.24-3.67,5.45-7.6,10.73-11.41,16.08-3.14,4.41-6.07,8.98-9.44,13.2-3.96,4.97-8.34,9.6-12.42,14.47-1.55,1.85-2.75,3.98-4.19,5.92-3.52,4.74-6.88,9.61-10.69,14.1-4.94,5.82-10.2,11.37-15.44,16.93-1.82,1.94-3.86,3.75-6.05,5.24-1.3.88-3.13.94-4.65,1.55-1.97.78-3.82,1.9-5.83,2.55-2.18.71-4.5,1-6.74,1.56-8.89,2.22-17.94,1.52-26.94,1.43-2.94-.03-5.97-.47-8.57-2.35-.65-.47-1.89-.05-2.79-.29-5.35-1.4-10.56-3.09-14.61-7.2-1.02-1.04-2.6-1.58-3.46-2.71-2.03-2.65-4.27-5.32-5.5-8.35-1.24-3.06-1.84-6.56-1.9-9.88-.21-12.74-.14-25.48-.06-38.22.05-7.64.47-15.28.45-22.92-.02-9.64.29-19.33-.64-28.89-.99-10.06-1.21-20.1-1.32-30.17-.05-4.56-.18-9.13-.53-13.67-.5-6.56-1.23-13.09-1.86-19.64-.31-3.25-.35-6.56-.98-9.75-.66-3.38-1.88-6.64-2.86-9.95-.19-.63-.71-1.28-.63-1.87.5-3.71-1.83-6.59-3.2-9.55-1.7-3.69-4.31-7.25-7.3-10.01-4.71-4.34-10.85-4.2-16.58-2.6-2.75.77-5.21,3.06-7.47,5.04-3.23,2.83-6.14,6.02-9.22,9.04-4.75,4.66-9.51,9.29-14.27,13.94-.17.17-.37.37-.43.59-1.59,5.52-6.61,8.18-10.03,12.18-3,3.51-5.57,7.38-8.44,11-1.17,1.48-2.61,2.74-3.93,4.1-.17.18-.51.37-.49.53.32,2.86-1.96,4.41-3.27,6.41-1.36,2.07-3.1,3.89-4.43,5.98-1.18,1.86-2.07,3.92-3.02,5.91-1,2.09-1.67,4.4-2.99,6.24-.77,1.07-1.57,1.89-1.64,3.29-.11,2.47-1.64,4.29-2.82,6.35-1.86,3.23-3.1,6.82-4.61,10.26-2.11,4.77-4.15,9.57-6.37,14.28-2.13,4.53-4.64,8.89-6.63,13.48-1.72,3.97-3.58,7.91-4.48,12.22-.31,1.47-1.23,2.81-1.84,4.22-1.38,3.19-2.75,6.38-4.11,9.58-.1.22-.03.63-.17.7-3.18,1.74-2.79,5.53-4.64,8.14-2.49,3.51-3.86,7.82-5.78,11.75-3.14,6.44-6.36,12.85-9.47,19.3-.55,1.14-.76,2.44-1.15,3.66-.16.51-.35,1.02-.6,1.49-1.42,2.71-2.83,5.41-4.29,8.1-1.31,2.42-2.68,4.8-4,7.21-1.13,2.06-2.27,4.11-3.32,6.2-.95,1.9-2.03,3.79-2.6,5.81-1.08,3.81-3.77,6.76-5.18,10.37-.86,2.19-1.56,4.45-2.51,6.6-2.47,5.61-5.08,11.16-7.54,16.78-2.01,4.61-3.89,9.28-5.81,13.93-1.02,2.46-1.63,5.18-3.08,7.34-2.58,3.84-3.66,8.23-5.38,12.39-1.54,3.73-2.76,7.65-4.82,11.08-1.34,2.24-1.55,4.52-2.21,6.82-.53,1.86-1.62,3.56-2.49,5.32-1.61,3.22-3.27,6.42-4.86,9.65-.88,1.79-1.53,3.72-2.55,5.43-2.32,3.87-6.02,3.65-8.27-.32-.72-1.27-1.83-2.32-2.69-3.51-1.69-2.32-3.56-4.56-4.93-7.06-1.34-2.45-2.13-5.19-3.2-7.8-.6-1.48-1.14-2.99-1.91-4.38-2.67-4.82-2.67-10.3-4.02-15.44-3.17-12.16-1.68-24.56-1.91-36.86-.07-3.69.48-7.42.97-11.1.41-3.07,1.19-6.09,1.72-9.15,1.11-6.41,2.16-12.82,3.23-19.24.82-4.93,1.72-9.85,2.43-14.8.63-4.38.96-8.81,1.57-13.2.62-4.37,1.44-8.71,2.15-13.07.47-2.93.87-5.87,1.36-8.8.72-4.27,1.59-8.53,2.22-12.81.85-5.85,1.5-11.73,2.28-17.59.33-2.51.84-5,1.16-7.51.49-3.78.98-7.57,1.3-11.37.43-5.11.09-10.37,1.2-15.31,1.16-5.15.38-10.22.81-15.3.49-5.76.94-11.53,1.55-17.28.75-7.01,1.75-14,2.47-21.01.93-9.08,1.69-18.18,2.5-27.27.69-7.86,1.37-15.71,1.99-23.57.26-3.22.33-6.45.54-9.67.32-5.01.61-10.03,1.05-15.03.38-4.4,1.05-8.77,1.38-13.18.13-1.79-.45-3.62-.42-5.42.09-5.56-.13-11.17.57-16.66,1.82-14.25,1.52-28.55,2.07-42.84.23-5.93-.57-11.7-.6-17.53-.04-7.61.58-15.22.92-22.83C38.06,0,39.56,0,41.06,0Z"/>
        <path class="cls-1" d="m1012.58,249.37c-3.13,2.87-6.19,5.84-9.42,8.59-3.2,2.72-6.6,5.19-9.86,7.85-3.04,2.48-5.91,5.18-9.02,7.57-4.51,3.46-9.18,6.7-13.74,10.09-1.39,1.04-2.55,2.38-3.95,3.41-3.17,2.33-6.41,4.55-9.63,6.8-2.63,1.84-5.19,3.81-7.95,5.43-4.62,2.71-9.38,5.18-14.09,7.74-.65.36-1.49.52-1.97,1.02-4,4.19-9.67,5.43-14.41,8.28-2.34,1.41-4.54,3.05-6.87,4.46-4.86,2.94-9.81,5.75-14.66,8.71-2.99,1.83-5.9,3.81-8.8,5.78-3.45,2.34-6.91,4.69-10.28,7.14-3.61,2.62-7.16,5.34-10.7,8.07-4.31,3.33-8.66,6.61-12.83,10.09-5.96,4.97-11.97,9.91-17.62,15.23-6.11,5.76-11.9,11.86-17.67,17.96-3.04,3.22-5.84,6.68-8.6,10.14-5.42,6.79-10.68,13.72-16.14,20.49-2.74,3.39-5.76,6.55-8.66,9.82-1.43,1.61-3.03,3.1-4.26,4.85-3.06,4.35-5.94,8.83-8.9,13.25-1.37,2.04-2.74,4.09-4.14,6.11-2.01,2.89-4.14,5.71-6.08,8.64-2,3.02-3.79,6.18-5.77,9.21-1.1,1.68-2.42,3.21-3.62,4.83-1.36,1.84-2.63,3.75-4.04,5.55-2.75,3.5-5.55,6.97-8.37,10.42-3.58,4.37-7.12,8.78-10.83,13.04-1.71,1.96-3.84,3.53-5.7,5.36-3.79,3.71-7.47,7.53-11.29,11.21-4.31,4.15-8.69,8.22-13.09,12.26-3.69,3.39-7.41,6.74-11.2,10.02-4.1,3.54-8.33,6.94-12.44,10.47-1.92,1.65-3.67,3.48-5.54,5.19-1.13,1.03-2.29,2.03-3.5,2.96-4.93,3.76-9.74,7.68-14.88,11.13-2.34,1.57-5.53,1.83-7.98,3.29-6.39,3.78-13.36,3.33-20.29,3.36-5.08.03-10.16.12-15.24-.02-8.37-.24-16.75-.47-25.1-1.04-4.55-.31-9.09-1.16-13.56-2.08-1.74-.36-3.31-1.59-4.97-2.4-.43-.21-.94-.45-1.38-.39-3.43.43-6.13-.89-8.83-2.94-1.9-1.44-4.4-2.11-6.63-3.12-3.72-1.7-7.4-3.47-11.16-5.07-3.54-1.51-7.12-2.92-10.74-4.24-3.79-1.39-7.62-2.69-11.48-3.91-1.16-.37-2.52-.1-3.67-.49-7.63-2.61-15.51-2.79-23.45-2.81-19.72-.07-39.43-.38-59.15-.43-4.45-.01-9,.2-13.31,1.18-3.15.72-6.08,2.7-8.92,4.42-3.36,2.04-6.54,4.37-9.74,6.66-1.6,1.15-3.06,2.49-4.58,3.74-1.47,1.21-3,2.35-4.37,3.66-3.13,2.97-6.27,5.93-9.23,9.07-2.53,2.69-4.87,5.56-7.17,8.46-2.5,3.15-5.01,6.32-7.21,9.68-1.28,1.96-2.08,4.27-2.92,6.48-2.22,5.84-2.46,11.97-1.99,18.08.28,3.56,1.28,7.06,1.95,10.59.5,2.6.82,5.25,1.55,7.78.9,3.12,2.14,6.14,3.23,9.21.92,2.62,1.7,5.29,2.81,7.83.64,1.48,1.73,2.8,2.73,4.1,2,2.6,3.8,5.22,4.85,8.44.68,2.08,2.41,3.84,3.76,5.68,2.46,3.36,5.19,6.53,7.44,10.02,6.92,10.74,16.75,18.79,25.48,27.85,1.79,1.86,4.42,2.91,6.16,4.8,2.12,2.3,3.7,5.09,5.53,7.66.71,1,1.44,1.98,2.18,2.95,3.88,5.07,6,10.94,7.81,16.97.19.62.45,1.33.91,1.74,1.6,1.44,1.88,3.26,2.08,5.28.14,1.43,1.18,2.77,1.39,4.21.52,3.65-1.81,6.49-3.09,9.62-.14.35-.67.56-.77.91-1.53,5.65-6.27,8.7-10.02,12.57-1.26,1.29-2.3,2.81-3.62,4.03-.97.9-2.15,1.68-3.37,2.2-3.64,1.53-6.87,3.51-9.56,6.52-1.26,1.41-3.35,2.03-4.97,3.16-2.84,1.99-5.46,4.32-8.42,6.07-2.96,1.75-6.27,2.9-9.36,4.44-1.03.51-1.88,1.41-2.79,2.15-3.27,2.66-6.6,5.26-9.78,8.02-4.83,4.21-9.55,8.54-14.33,12.81-2.29,2.05-4.73,3.94-6.88,6.12-1.48,1.5-2.58,3.38-3.87,5.07-1.38,1.82-2.74,3.65-4.18,5.42-1.79,2.2-3.93,4.17-5.4,6.55-1.78,2.88-3.05,6.09-4.5,9.17-1.2,2.56-2.47,5.09-3.43,7.74-.72,1.98-1.04,4.12-1.48,6.2-1.35,6.42-2.35,12.94-1.45,19.45.49,3.56,2.34,6.92,3.45,10.41,1.4,4.39,6.01,5.01,8.91,7.63.82.74,2.71.56,4.07.41,2.98-.34,5.92-1.1,8.91-1.38,3.62-.34,7.04-1.12,10.29-2.81.97-.5,2.22-.47,3.35-.64.88-.13,1.85,0,2.66-.3,3.73-1.4,7.31-3.52,11.15-4.22,3.66-.67,6.34-3.67,10.37-3.4,1.83.12,3.72-1.95,5.66-2.11,2.9-.24,5.3-1.24,7.79-2.57,1.66-.89,3.77-.92,5.62-1.49,4.07-1.24,8.06-2.78,12.18-3.83,4.39-1.11,8.86-2.01,13.35-2.59,4.7-.61,9.48-1.05,14.21-.97,5.38.09,10.71,1.04,15.85,2.8,1.15.39,2.43.41,3.65.59.57.08,1.23-.01,1.7.24,2.46,1.34,4.86,2.79,7.31,4.15.55.31,1.23.36,1.82.61.8.34,1.82.55,2.32,1.16,2.72,3.32,6.29,5.3,10.16,6.94,1.04.44,2.04,1.3,2.74,2.22,4.05,5.33,8.36,10.53,11.85,16.21,1.95,3.18,3.08,7.05,2.92,11.07-.15,3.74-.1,7.5,0,11.24.03,1.27.49,2.53.74,3.79.08.4.32.95.14,1.18-1.27,1.7-.83,2.99.34,4.66.91,1.29-.52,1.57-1.61,1.42-3.1-.43-6.09-4.02-6.11-7.39-.03-5.08.2-10.17-.06-15.24-.3-5.88-2.31-11.08-6.93-15.14-1.83-1.61-3.06-3.87-4.8-5.6-1.86-1.85-4-3.41-5.99-5.13-1.3-1.12-2.43-2.49-3.85-3.41-2.74-1.78-5.5-3.64-8.5-4.89-4.43-1.85-8.97-3.98-13.65-4.59-6.67-.87-13.51-.69-20.27-.53-4.18.1-8.4.76-12.51,1.61-3.76.79-7.39,2.16-11.07,3.32-2.18.68-4.33,1.45-6.5,2.17-3.49,1.17-6.96,2.41-10.48,3.48-3.45,1.06-7.01,1.8-10.43,2.95-3.19,1.08-6.83,1.03-9.48,3.64-.48.47-1.53.94-2.01.73-2.17-.97-3.38.6-5.05,1.36-3.02,1.38-6.22,2.53-9.47,3.15-5.16.99-10.43,1.44-15.65,2.16-1.6.22-3.19.9-4.78.86-3.89-.11-7.04-2.04-9.85-4.6-.39-.36-.99-.5-1.36-.88-1.28-1.33-2.56-2.67-3.7-4.12-.43-.54-.25-1.66-.73-2.05-2.19-1.78-2.02-4.48-2.96-6.76-2.5-6.08-2.04-12.29-1.48-18.57.42-4.65,2.6-8.76,3.77-13.17.94-3.53,2.07-7.04,3.5-10.39,1.08-2.53,2.75-4.81,4.17-7.2.38-.64.87-1.22,1.21-1.88,2.1-4.03,5.22-7.28,8.16-10.65,1.77-2.03,3.54-4.07,5.38-6.03,1.36-1.45,2.88-2.75,4.23-4.21.85-.92,1.38-2.16,2.31-2.98,3.7-3.28,7.52-6.43,11.24-9.68,1.54-1.35,2.86-2.97,4.46-4.25,1.5-1.19,3.24-2.07,4.85-3.13,4.08-2.69,8.21-5.33,12.2-8.16,1.63-1.16,2.93-2.78,4.42-4.15.25-.23.73-.19,1.07-.36,2.11-1.07,4.23-2.12,6.29-3.28,1.26-.71,2.4-1.61,3.61-2.41,1.29-.85,2.99-1.39,3.82-2.56,1.43-2,3.26-2.62,4.73-2.75,1.31-1.06,2.12-1.72,2.93-2.37.92-.74,1.94-1.37,2.76-2.21,4.11-4.19,8.41-8.23,12.15-12.74,2.05-2.47,3.24-5.7,4.55-8.7.39-.9.12-2.31-.3-3.31-1.38-3.28-2.84-6.55-4.49-9.7-2.26-4.3-2.48-9.5-6.14-13.2-1.28-1.3-1.7-3.4-2.85-4.88-1.89-2.43-3.94-4.75-6.12-6.92-2.18-2.18-4.58-4.14-6.93-6.14-1.85-1.58-3.77-3.07-5.66-4.61-.38-.31-.75-.65-1.07-1.03-2.25-2.66-4.43-5.39-6.76-7.99-2.81-3.14-6.28-5.61-8.26-9.59-1.3-2.61-3.71-4.66-5.51-7.05-1.42-1.88-2.72-3.86-3.97-5.85-1.77-2.81-3.48-5.67-5.16-8.53-2.29-3.89-4.55-7.79-6.77-11.71-.51-.9-.75-1.96-1.16-2.92-1.6-3.71-3.22-7.42-4.83-11.13-.26-.59-.6-1.16-.74-1.77-.69-2.98-1.42-5.95-1.96-8.96-.62-3.49-1.39-7-1.5-10.52-.15-4.71.1-9.46.52-14.16.16-1.79,1.18-3.53,1.93-5.24,1.55-3.51,2.99-7.09,4.83-10.45,4.32-7.89,10.78-14.01,17.14-20.2.75-.73,1.1-1.86,1.79-2.67.61-.71,1.43-1.25,2.18-1.83.23-.18.68-.17.81-.39,2.43-3.82,6.32-5.86,9.9-8.33,2.88-1.99,5.44-4.42,8.24-6.52,1.37-1.03,2.96-1.76,4.45-2.62,5.36-3.09,10.89-4.97,17.28-5.5,20.33-1.7,40.66-.33,60.98-.68,6.3-.11,12.63.71,18.91,1.46,4.23.5,8.49,1.29,12.57,2.52,6.68,2.02,13.25,4.42,19.78,6.86,2.27.85,4.25,2.43,6.48,3.43,1.94.88,4.04,1.37,6.05,2.1,4.5,1.64,8.84,3.58,13.08,5.87,2.56,1.39,5.65,1.79,8.48,2.7,1.16.37,2.22,1.23,3.38,1.35,5.67.62,11.34,1.34,17.03,1.53,14.36.48,28.72.85,43.08.97,7.68.06,14.34-3.25,20.39-7.73,4.94-3.66,9.78-7.47,14.61-11.29.95-.75,1.51-2.06,2.51-2.71,3.26-2.11,5.33-5.57,9.01-7.34,2.33-1.12,3.84-3.83,5.92-5.6,1.98-1.68,4.26-2.99,6.32-4.58.86-.66,1.43-1.69,2.23-2.45,5.16-4.88,10.42-9.65,15.5-14.62,6.86-6.71,13.87-13.29,20.26-20.42,5.36-5.98,10.01-12.61,14.81-19.07,2.39-3.22,4.37-6.74,6.63-10.05,1.37-2,3.26-3.71,4.34-5.84,1.39-2.74,3.71-4.94,4.93-7.5,1.88-3.92,5.23-6.49,7.36-10.06,2.15-3.6,4.28-7.22,6.63-10.7,1.14-1.69,2.84-2.98,4.11-4.6,1.31-1.66,2.37-3.51,3.6-5.24.43-.6.99-1.12,1.51-1.65,4.08-4.19,8.12-8.36,11.1-13.53,1.61-2.79,4.3-4.94,6.44-7.44,1.76-2.05,3.38-4.22,5.16-6.25,5.07-5.77,10.1-11.58,15.31-17.22,3.54-3.83,7.23-7.53,11.07-11.07,5.39-4.96,10.93-9.76,16.48-14.54,2.61-2.24,5.45-4.21,8.09-6.43,2.82-2.36,5.44-4.97,8.29-7.28,1.87-1.51,4.06-2.62,6.02-4.04,3.28-2.38,6.44-4.91,9.72-7.28,1.93-1.39,4.19-2.36,5.94-3.93,3.51-3.14,7.85-4.7,11.89-6.85.86-.46,1.71-1.11,2.3-1.88,1.79-2.32,4.73-2.38,6.96-3.77,2.27-1.42,5.08-2.26,6.14-5.21.14-.39,1.14-.43,1.71-.7,1.15-.56,2.28-1.16,3.41-1.77.34-.19.63-.62.97-.65,3.4-.35,5.98-2.23,8.66-4.16,3.03-2.18,6.41-3.89,9.58-5.87,2.59-1.62,5.09-3.38,7.67-5.01,2.03-1.28,4.15-2.41,6.17-3.71,1.69-1.09,3.26-2.35,4.92-3.48,1.33-.9,2.77-1.65,4.09-2.57,2.91-2.02,5.85-4.02,8.64-6.19,4.79-3.73,10.13-6.79,14-11.65.81-1.01,2.43-1.34,3.49-2.21,2.98-2.44,5.87-5,8.78-7.53.61-.53,1.13-1.16,1.72-1.72,1.86-1.77,3.71-3.56,5.62-5.29,1.27-1.15,2.66-2.16,3.94-3.3.4-.36.52-1.01.9-1.4,1.43-1.5,2.92-2.96,4.39-4.43v9.99Z"/>
        <path class="cls-1" d="m693.24,0c1.23,3.8,2.44,7.61,3.71,11.4,1.61,4.8,3.31,9.57,4.9,14.38,2.42,7.31,4.8,14.63,7.16,21.96,1.99,6.17,3.81,12.4,5.92,18.53,1.09,3.16,2.64,6.16,3.98,9.24.1.23.29.43.35.66,1.61,6.35,6.47,10.8,9.47,16.34,3.23,5.96,8.72,9.8,13.59,14.15,3.61,3.22,7.61,6.08,11.71,8.65,5.38,3.36,11.01,6.35,16.6,9.36,4.24,2.28,8.58,4.4,12.92,6.48,6.85,3.3,14.01,5.51,21.61,6.31,6.91.72,13.66-.15,20.36-1.69,4.15-.95,8.41-1.59,12.42-2.94,5.13-1.73,10.09-3.98,15.09-6.1,3.21-1.36,6.43-2.75,9.52-4.37,3.2-1.67,6.33-3.51,9.37-5.48,4.34-2.81,8.56-5.8,12.82-8.73,3.58-2.47,7.25-4.83,10.68-7.48,4.48-3.47,8.82-7.11,13.12-10.8,5.88-5.05,11.38-10.57,17.55-15.22,7.07-5.33,14.63-10.03,22.09-14.83,3.81-2.45,7.82-4.57,11.8-6.75,5.98-3.29,11.91-6.7,18.06-9.65,3.2-1.54,6.77-2.54,10.28-3.18,5.57-1.01,11.21-1.66,16.85-2.18,2.44-.22,4.94.26,7.42.42v6c-6.93-.2-13.84-.65-20.72.94-7.58,1.75-14.64,4.68-21.39,8.45-4.24,2.37-8.53,4.66-12.69,7.18-4.69,2.84-9.25,5.89-13.88,8.84-3.53,2.25-7.15,4.38-10.57,6.79-3.77,2.65-7.5,5.4-10.98,8.41-6.81,5.88-12.63,12.85-20.26,17.85-3.54,2.33-6.49,5.55-9.94,8.05-3.11,2.26-6.56,4.06-9.81,6.13-1.18.75-2.13,1.86-3.33,2.57-2.99,1.79-6.07,3.45-9.11,5.16-3.05,1.72-6.01,3.62-9.16,5.12-3.83,1.83-7.81,3.37-11.75,4.97-2.36.96-4.74,1.85-7.15,2.66-2.56.85-5.14,1.69-7.76,2.32-4.3,1.02-8.6,2.28-12.96,2.69-5.65.52-11.37.34-17.06.39-1.56.01-3.15-.14-4.68-.45-3.36-.68-6.76-1.32-10.03-2.34-2.66-.83-5.2-2.09-7.72-3.33-4.1-2.02-8.13-4.17-12.18-6.27-.37-.19-.73-.42-1.12-.54-5.06-1.55-9.16-4.9-13.73-7.37-8.72-4.71-15.94-11.3-23.35-17.75-3.35-2.92-5.72-6.32-8.02-9.94-2-3.15-4.35-6.09-6.12-9.35-2.19-4.02-4.1-8.22-5.84-12.46-1.92-4.68-3.6-9.46-5.23-14.25-1.24-3.64-2.15-7.38-3.35-11.03-1.22-3.73-2.66-7.4-3.91-11.12-.68-2.02-1.09-4.14-1.78-6.16-1.4-4.09-2.96-8.13-4.35-12.22-1.54-4.54-2.88-9.15-4.47-13.68-.58-1.66-1.62-3.17-2.45-4.75,2.5,0,5,0,7.5,0Z"/>
      </g>
    </g>
  </g>
</svg>