<?xml version="1.0" encoding="UTF-8"?>
<svg id="Ebene_2" data-name="Ebene 2" xmlns="http://www.w3.org/2000/svg" viewBox="0 0 262.17 235.47">
  <defs>
    <style>
      .cls-1 {
        fill: #aa6d7f;
      }

      .cls-2 {
        fill: #d29bc6;
      }

      .cls-3 {
        fill: #c788bb;
      }

      .cls-4 {
        fill: #dbacd0;
      }
    </style>
  </defs>
  <g id="Ebene_1-2" data-name="Ebene 1">
    <g>
      <path class="cls-2" d="m124.46,65.87s.69.71,1.4,1.79,1.71,3.17,2.46,5.66,3.24,10.22,3.24,10.22l6.15-12.64-6.63-17.46-6.63,12.43Z"/>
      <g>
        <path class="cls-3" d="m83.05,204.33c-2.13.39-3.33-.48-3.42-2.02-.16-2.64-.51-5.28-.71-7.92-.22-2.91-.37-5.82-.51-8.74-.19-4.24-.43-8.48-.49-12.72-.15-11.21-.22-22.42-.31-33.63-.02-2.51,0-5.03-.02-7.54,0-.65-.11-1.31-.17-1.96.53.07,1.05.14,1.57.2-.02,1.25-.06,2.5-.06,3.76.03,8.82.04,17.63.12,26.45.05,5.07.21,10.14.35,15.21.06,2.43.2,4.86.25,7.29.04,2.11-.01,4.22.01,6.34,0,.41.18.83.27,1.24-.01,1.84-.13,3.69,0,5.52.14,2.13.42,4.26.78,6.38.09.51.72.98,1.18,1.41.31.29.77.49,1.16.72Z"/>
        <path class="cls-3" d="m75.42,23.59c-.78-2.4-1.62-4.78-2.3-7.21-.42-1.52-.66-3.11-.84-4.69-.27-2.43-.4-5.24.15-7.82s2.77-1.47,3.08-.58c-.64,1.52-2.02,4.21-1.81,5.7.44,3,1.06,5.99,1.9,8.9.57,1.95,1.65,3.74,2.5,5.6.14.32.23.66.44,1.24-1.18-.43-2.15-.79-3.12-1.14Z"/>
        <path class="cls-4" d="m190.72,137.31c-.28-.04-.55-.09-.83-.14-.03-.01-.06-.04-.09-.03-.02,0-.04.05-.04.08,0,2.46,0,4.91.01,7.37-.07,3.72-.14,7.44-.21,11.16-.06,3.26-.12,6.51-.2,9.77-.06,2.26-.15,4.53-.22,6.79-.07,2.23-.13,4.47-.2,6.7-.13,3.81-.25,7.61-.4,11.41-.1,2.52-.23,5.03-.4,7.55-.15,2.3-.35,4.61-.57,6.91-.08.9.13,1.79-1.76,3.38s-3.14-.51-3.99-.51c.45-3.09,3.82-6.35,4.13-9.45.33-3.37.45-6.77.61-10.15.17-3.79.28-7.58.4-11.36.14-4.65.3-9.29.39-13.94.16-8.02.25-16.04.42-24.06.02-.89.3-1.81.63-2.65.29-.73.91-.85,1.46-.17.33.41.58.89.87,1.35Z"/>
        <path class="cls-4" d="m218.87,197.17c-.09-4.48-.11-8.98-.44-13.44-.42-5.62-1.07-11.22-1.72-16.81-.36-3.14-.88-6.26-1.41-9.37-.45-2.63-1.05-5.24-1.51-7.87-.37-2.1-.59-4.23-.94-6.34-.44-2.63-.96-5.24-1.42-7.87-.38-2.21-.71-4.43-1.07-6.64-.35-2.12-.72-4.24-1.07-6.36-.44-2.6-.87-5.2-1.31-7.8-.44-2.61-.91-5.22-1.32-7.83-.26-1.64-.4-3.3-.67-4.94-.23-1.41-.61-2.79-.82-4.2-.18-1.22-.19-2.46-.32-3.69-.03-.32-.28-.62-.37-.94-.24-.85-.74-1.75-.63-2.55.25-1.69-.37-3.21-.56-4.81-.19-1.63-.52-3.25-.75-4.88-.53-3.91-1.08-7.83-1.54-11.75-.33-2.8-.7-5.63-.7-8.44,0-2.23-.21-4.59.93-6.66.41-.74,1.08-1.42,1.79-1.9,1.41-.95,2.95-1.71,4.4-2.61,1.2-.75,1.24-1.05.27-2.15-1.59-1.79-3.15-3.62-4.86-5.29-2.87-2.79-5.98-5.32-9.56-7.14-1.78-.9-3.76-1.4-5.61-2.16-.33-.14-.51-.64-.77-.97-.05-.09-.1-.18-.15-.27-.5-1.29-1-2.58-1.5-3.88.38.31.77.61,1.13.94,1.71,1.56,4.51,1.43,5.74-.32.45-.64.87-1.34,1.12-2.08,1.86-5.35,1.67-10.68-.36-15.93-.84-2.15-2.27-3.87-4.74-4.32.44-.06.89-.12,1.33-.19,2.36.28,4.13,1.56,5.28,3.54.8,1.38,1.55,2.92,1.81,4.47.31,1.87.04,3.83.11,5.74.1,2.48-.46,4.84-1.22,7.15-.57,1.72-1.29,3.39-2,5.21.6.29,1.26.63,1.94.93,4.44,1.97,8.09,4.95,11.25,8.62,2.5,2.9,4.82,5.92,6.68,9.28,1.89,3.42,3.8,6.84,5.48,10.37,1.09,2.29,1.9,4.74,2.64,7.18.96,3.22,1.82,6.48,2.54,9.76.41,1.86.54,3.8.64,5.71.15,2.96.16,5.92.22,8.88.08,4.25.17,8.5.23,12.75.03,1.98.03,3.97,0,5.95-.06,3.59-.13,7.19-.24,10.78-.03,1.07-.11,2.15-.3,3.21-.34,1.87-.99,2.73-3.19,2.61-.34-.47-.8-.89-.99-1.42-.31-.88-.54-1.8-.64-2.73-.25-2.52-.42-5.04-.62-7.56-.13-1.56-.26-3.12-.39-4.68-.2-2.44-.41-4.88-.6-7.32-.1-1.32-.09-2.65-.22-3.97-.36-3.57-.76-7.14-1.18-10.7-.18-1.5-.28-3.04-.69-4.49-.4-1.43-.29-2.9-.85-4.33-1.09-2.81-1.88-5.73-2.83-8.6-.55-1.66-1.08-3.34-1.78-4.94-.95-2.15-2.01-4.26-3.1-6.35-1.13-2.17-2.33-4.32-3.55-6.44-.29-.51-.78-.91-1.23-1.42-.28.62-.41,1.15-.72,1.56-.45.59-.42,1.1-.09,1.72.2.37.28.81.41,1.21.12,2.05.22,4.1.36,6.15.11,1.56.22,3.11.41,4.66.26,2.17.58,4.34.91,6.5.34,2.23.7,4.46,1.09,6.68.43,2.46.93,4.91,1.36,7.37.3,1.7.52,3.42.8,5.13.26,1.63.57,3.26.81,4.89.08.52-.05,1.07.01,1.6.06.49.28.97.38,1.46.47,2.45.93,4.91,1.39,7.37.47,2.5.96,5,1.38,7.51.31,1.85.5,3.72.81,5.57.55,3.27,1.17,6.52,1.73,9.78.43,2.48.82,4.96,1.23,7.44.46,2.76.91,5.53,1.41,8.28.35,1.9.82,3.77,1.16,5.67.32,1.79.55,3.59.81,5.39.22,1.53.42,3.07.64,4.6.17,1.18.39,2.36.55,3.54.23,1.74.45,3.48.63,5.22.22,2.2.38,4.41.57,6.61.26,2.95.53,5.89.79,8.84,0,.07,0,.13,0,.2.08,4.05-.18,9.35-.51,12.59-.16,1.6-.62,7-1.16,8.53s-2.99.73-2.99.18c0-.7,2.11-9.59,2.06-11.96Z"/>
        <path class="cls-2" d="m73.84,4.37C74.31,2.42,78.08,0,80.4,0c2.45,0,5.93.76,7.73,4.37.07,2.16.21,4.32.17,6.47-.02,1.14-.38,2.28-.56,3.42-.44,2.83-1.04,5.6-2.69,8.03-.98,1.46-.96,1.47.81,1.73.13.02.24.1.36.13,4.78,1.2,8.3,4.42,11.91,7.47,2.54,2.15,4.29,4.99,6.02,7.78,1.16,1.87,2.03,3.92,3.03,5.89.2.86.41,1.72.61,2.58.48.93.64,1.81-.23,2.63-.18.17-.28.44-.42.66-1.18,1.93-2.33,3.89-3.58,5.78-.41.62-1.06,1.08-1.6,1.62-.54.06-.86-.11-1.12-.67-.47-1.01-1-2.02-1.67-2.9-.76-.99-1.63-1.93-2.61-2.69-.99-.77-2.16-1.32-3.29-1.87-.27-.13-.85.01-1.05.24-.16.19.05.68.09,1.04-.12.37-.2.75-.37,1.09-.42.9-1.01,1.75-1.29,2.69-.2.68,0,1.49.03,2.23.06,1.24.13,2.48.2,3.73.06,1.11.03,2.24.22,3.33.48,2.82.3,5.61-.16,8.41-.32,1.94-.57,3.89-.85,5.83-.99,3.87-1.94,7.75-3,11.6-.42,1.52.04,2.6,1.18,3.49,1.26.99,2.52,1.99,4.22,2.12h-.01c.08.12.15.26.23.39,0,.13-.06.27-.02.39.63,2.02,1.36,4.01,1.88,6.05.6,2.38,1.01,4.81,1.5,7.22-.05.08-.13.16-.14.25-.36,2.74-.76,5.48-1.04,8.23-.32,3.15-.55,6.31-.81,9.47-.27,3.32-.54,6.64-.79,9.97-.28,3.62-.53,7.24-.8,10.87-.26,3.59-.53,7.17-.79,10.76-.19,2.57-.42,5.14-.59,7.72-.22,3.37-.38,6.74-.61,10.1-.17,2.48-.39,4.96-.59,7.44-.27,3.33-.51,6.67-.8,10-.23,2.63-.5,5.26-.83,7.88-.05.41-.43.91-.79,1.11-1.81.99-3.69,1-5.6.25-.31-.24-.67-.43-.92-.72-.37-.43-.87-.91-.94-1.41-.29-2.12-.51-4.25-.62-6.38-.09-1.84,0-3.68,0-5.52.04-.28.13-.56.12-.84-.04-2.37-.11-4.75-.14-7.12-.05-3.86-.05-7.73-.12-11.59-.15-8.44-.33-16.88-.48-25.32-.02-1.07.09-2.15.07-3.22-.05-4.06-.13-8.12-.2-12.18-.42-.07-.84-.14-1.25-.2-.8-.3-1.6-.59-2.39-.91-.59-.24-1.19-.21-1.47.37-.74,1.55-1.47,3.12-2.03,4.74-.42,1.22-.55,2.53-.81,3.81-.22,1.07-.48,2.14-.64,3.23-.35,2.43-.61,4.86-.97,7.29-.35,2.31-.78,4.62-1.18,6.92-.2,1.17-.48,2.34-.61,3.52-.12,1.11-.39,2.18-.49,3.3-.17,1.89-.62,3.75-.93,5.62-.47,2.9-.9,5.81-1.39,8.7-.36,2.12-.82,4.22-1.18,6.34-.5,2.96-.92,5.94-1.44,8.9-.32,1.8-.74,3.59-1.14,5.38-.79,3.6-1.39,7.76-3.27,10.52s-9.28.88-9.46,0-.37-1.65-.37-2.48c0-4.51-.48-9.01-.04-13.53.2-2.1.15-4.22.22-6.34,0-.2,0-.4.01-.59.19-1.97.4-3.95.59-5.92.16-1.61.28-3.22.47-4.83.13-1.09.38-2.17.51-3.26.29-2.42.51-4.85.82-7.26.28-2.19.61-4.37.95-6.55.38-2.41.82-4.8,1.21-7.21.42-2.6.8-5.21,1.24-7.8.41-2.37.9-4.73,1.32-7.09.33-1.85.63-3.71.95-5.57.41-2.4.85-4.79,1.25-7.19.48-2.81.91-5.63,1.41-8.44.36-2.01.8-4,1.17-6.01.28-1.5.51-3.01.78-4.51.26-1.48.56-2.96.81-4.45.33-1.98.63-3.96.95-5.95.21-1.31.45-2.62.64-3.94.3-2.12.54-4.24.84-6.36.22-1.55.55-3.08.75-4.63.3-2.38.55-4.78.8-7.17.27-2.55.54-5.11.78-7.67.11-1.14.16-2.28.21-3.43.08-2.01.18-4.02.18-6.03.01-2.51-1.27-4.42-2.99-6.1-.22-.77-.81-1.03-1.69-1.29.15.6.25,1.02.35,1.45-.39.42-.84.8-1.16,1.26-1.48,2.19-3.07,4.31-4.34,6.62-1.81,3.29-3.54,6.64-4.4,10.35-.3,1.28-.88,2.49-1.17,3.77-.5,2.26-.91,4.55-1.28,6.84-.6,3.66-1.14,7.32-.98,11.05.09,2.07.09,4.15.22,6.21.12,1.79.37,3.56.58,5.34.1.81-.38,1.29-1.02,1.5-.77.25-1.59.38-2.39.43-1.15.07-2.31.05-3.47.02-3.04-.05-3.06.64-3.91-2.51-.07-.25-.28-.47-.31-.71-.48-3.42-1.15-6.84-1.35-10.28-.27-4.66-.04-9.33.57-13.97.28-2.12.56-4.25,1.01-6.33.79-3.6,1.54-7.23,2.62-10.75,1.52-4.96,3.57-9.73,6.06-14.31,3.07-5.63,7.19-10.31,12.33-14.12,4.67-3.46,9.93-4.69,15.65-4.26.97.35,1.93.71,3.12,1.14-.2-.58-.29-.92-.44-1.24-.84-1.87-1.93-3.66-2.5-5.6-.84-2.91-1.46-5.9-1.9-8.9-.22-1.49-.33-2.67.14-4.61Z"/>
        <path class="cls-4" d="m92.49,96.24s.01,0,.01,0c-.5-1.01-1.03-2.01-1.51-3.03-.21-.46-.52-.98-.46-1.43.29-2.16.61-4.32,1.07-6.44.36-1.65.89-3.27,1.43-4.88,1.48-4.41,2.85-8.87,4.57-13.19,1.19-3,2.89-5.81,4.36-8.7.54-.53,1.19-.99,1.6-1.62,1.24-1.89,2.39-3.85,3.58-5.78.14-.22.23-.49.42-.66.87-.82.71-1.71.23-2.63.51-.18,1.19-.21,1.52-.56,2.55-2.75,5.23-5.34,8.24-7.61,3.38-2.54,7.08-4.46,11.05-5.86,1.03-.37,2.27-.24,2.09-1.99-.1-.98.27-2,.43-3.04-.46-.02-.66-.02-.86-.04-1.1-.11-1.3-.35-1.28-1.47.02-1.12-.03-2.25,0-3.37.06-2.24-.02-4.5.26-6.71.41-3.12,1.64-5.99,3.32-8.64,1.16-1.82,2.56-3.35,4.77-3.9.09-.02.13-.21.2-.32.2,0,.4,0,.6,0,.24.13.48.35.73.38,2.86.41,4.83,2.32,5.22,5.16.17,1.22.43,2.45.37,3.67-.12,2.45-.49,4.83-1.26,7.22-.89,2.78-2.29,5.14-4.01,7.44-.7.93-.72,2.37-1.05,3.57-.02.06,0,.13,0,.2-.11.67-.56,1.59-.28,1.95.58.74,1.47,1.38,2.37,1.69,2.7.93,5.1,2.4,7.54,3.82,1.3.76,2.65,1.43,3.93,2.21,2.54,1.52,4.39,3.75,6.12,6.09.67,1.15,1.33,2.31,2,3.46.02.13.02.27.07.38.84,1.63,1.72,3.24,2.51,4.9.82,1.72,1.55,3.49,2.34,5.23.85,1.89,1.71,3.77,2.58,5.65.07.15.27.24.4.36.32,1.3.6,2.61.95,3.9.59,2.17,1.22,4.32,1.82,6.48.48,1.75.92,3.51,1.4,5.26.31,1.1.67,2.19,1,3.28.3.99.6,1.98.9,2.98.06.32.1.65.19.97,1.8,6.33,3.63,12.65,5.41,18.98.96,3.4,1.87,6.81,2.76,10.23.2.77.36,1.6-.67,2.04-1.58.69-3.07,1.73-4.93,1-1.28-.51-2.01-1.54-2.64-2.67-.24-.44-.52-.86-.78-1.29-.24.38-.29.69-.27,1,.13,2.66.24,5.31.4,7.97.25,4.06.55,8.12.81,12.18.13,2.03.29,4.07.36,6.1.16,4.21.26,8.42.41,12.63.1,2.72.27,5.45.38,8.17.15,3.69.27,7.38.38,11.07,0,.26-.23.52-.35.78-.21-2.57-.43-5.13-.62-7.7-.21-2.89-.42-5.78-.59-8.68-.22-3.69-.4-7.38-.6-11.07-.2-3.72-.4-7.44-.6-11.16-.13-2.48-.26-4.96-.4-7.45-.05-.94-.12-1.89-.2-2.83-.26-3.21-.53-6.42-.78-9.63-.07-.94-.1-1.88-.14-2.82.4-.31.93-.51.69-1.22-1.14-3.4-2.26-6.81-3.36-10.22-.37-1.13-.61-2.3-.99-3.43-.31-.92-.74-1.8-1.11-2.7-.17-.89-.27-1.8-.54-2.66-.87-2.78-1.79-5.55-2.7-8.32-.85-2.58-1.7-5.15-2.56-7.72-.11-.54-.14-1.12-.35-1.63-.47-1.15-1.02-2.26-1.55-3.39-1.26-2.71-2.82-5.2-5.07-7.21-.36-.32-.76-.59-1.15-.88-.03-.38-.05-.76-.09-1.36-.64.36-1.17.66-1.71.96-1.51.16-1.89.45-1.78,1.46.07.66.23,1.32.38,1.97.03.12.24.2.37.3,0,.3.05.6-.01.88-.46,1.92.19,3.7.64,5.51.17,1.73.3,3.46.52,5.18.47,3.72.97,7.43,1.48,11.15.22,1.62.51,3.24.77,4.85.06,2.2.06,4.4.22,6.6.11,1.41-.22,2.38-1.68,2.79-.52.15-1.01.4-1.52.6-.89-.01-1.78-.03-2.67-.03-1.99,0-4.33-1.61-4.96-3.5-.33-.98-.48-2.02-.74-3.03-.17-.68-.39-1.35-.59-2.03-.11.02-.22.04-.33.06,0,.8-.02,1.6,0,2.39.02.54-.13.86-.64,1.17-2.69,1.63-5.75,1.87-8.74,2.29-1.44.21-3.01.12-4.43-.21-2.09-.49-4.16-1.18-6.13-2.04-1.6-.7-2.52-2.14-2.72-3.94-.27-2.44-.57-4.88-.8-7.33-.29-3.16-.53-6.33-.79-9.49-.14-1.63-.26-3.26-.42-4.89-.24-2.3-.48-4.6-.78-6.89-.33-2.55-.59-5.11-1.15-7.61-.38-1.68-1.18-3.28-1.92-4.84-.13-.28-1.1-.49-1.37-.3-.42.31-.58.98-.86,1.5-.51.55-1.08,1.04-1.5,1.65-.72,1.03-1.31,2.14-2.01,3.17-.21.32-.75.44-.91.76-.58,1.2-1.21,2.41-1.54,3.7-.7,2.75-1.32,5.53-1.8,8.33-.32,1.88-.33,3.82-.48,5.73-.04,1.2-.12,2.4-.12,3.6,0,1.07.09,2.13.13,3.2.42,1.97.83,3.95,1.25,5.92.58,2.68,1.2,5.35,1.74,8.04.34,1.68.58,3.38.83,5.07.31,2.02.65,4.03.85,6.06.24,2.39.44,3.22-2.25,3.57-.09.01-.17.09-.26.12-2.99.73-5.88-.97-6.7-3.95-.46-1.65-.91-3.3-1.37-4.95-.49-2.41-.9-4.84-1.5-7.22-.51-2.05-1.25-4.03-1.88-6.05-.04-.12.01-.26.02-.39"/>
        <path class="cls-3" d="m107.19,45.29c.29.18.59.36,1.1.67,5.39-6.03,11.8-10.84,19.63-13.66-.44-1.36-.85-2.57-1.22-3.79-.82-2.75-.86-5.55-.5-8.36.26-2.01.3-4.1.9-6.01.7-2.23,1.75-4.4,2.95-6.42.76-1.29,2.07-2.25,3.13-3.36,1.46,0,2.91,0,4.37,0-.07.11-.11.29-.2.32-2.21.55-3.61,2.08-4.77,3.9-1.69,2.66-2.92,5.53-3.32,8.64-.29,2.21-.21,4.47-.26,6.71-.03,1.12.02,2.25,0,3.37-.02,1.12.18,1.36,1.28,1.47.2.02.39.02.86.04-.16,1.04-.53,2.06-.43,3.04.18,1.74-1.05,1.62-2.09,1.99-3.97,1.4-7.67,3.32-11.05,5.86-3,2.26-5.69,4.85-8.24,7.61-.33.35-1,.38-1.52.56-.2-.86-.41-1.72-.61-2.58Z"/>
        <path class="cls-3" d="m101.98,58.57c-1.47,2.89-3.17,5.7-4.36,8.7-1.72,4.32-3.09,8.78-4.57,13.19-.54,1.61-1.07,3.23-1.43,4.88-.46,2.13-.78,4.28-1.07,6.44-.06.45.24.98.46,1.43.48,1.02,1,2.02,1.51,3.03-1.69-.13-2.96-1.13-4.22-2.12-1.13-.89-1.6-1.98-1.18-3.49,1.07-3.85,2.01-7.73,3-11.6.54-1.43,1.03-2.88,1.64-4.28,2.21-5.05,4.43-10.08,6.71-15.1.35-.78.38-1.38-.08-2.07-1.29-1.93-2.79-3.69-4.62-5.14-.41-.33-.95-.49-1.44-.73-.04-.36-.25-.86-.09-1.04.19-.23.78-.37,1.05-.24,1.13.55,2.3,1.11,3.29,1.87.98.76,1.85,1.71,2.61,2.69.68.88,1.2,1.89,1.67,2.9.26.56.58.73,1.12.67Z"/>
        <path class="cls-2" d="m63.49,47.26c-.44.05-.89.11-1.33.16-.1-.43-.21-.85-.35-1.45.87.25,1.47.51,1.69,1.29Z"/>
        <path class="cls-4" d="m218.89,208.16c-.18,3.15-12.47,1.35-13.08-.61s-1.2-5-1.71-7.51c-.5-2.47-1.04-4.95-1.25-7.46-.15-1.77-.9-3.41-.72-5.27.12-1.21-.55-2.49-.78-3.76-.46-2.5-.9-5-1.29-7.52-.32-2.04-.53-4.09-.82-6.13-.23-1.57-.55-3.13-.77-4.71-.31-2.26-.49-4.54-.83-6.79-.39-2.58-.83-5.15-1.37-7.7-.56-2.63-1.14-5.26-1.94-7.82-.67-2.15-1.85-4.07-3.61-5.57-.29-.45-.54-.93-.87-1.35-.55-.68-1.17-.56-1.46.17-.33.84-.61,1.76-.63,2.65-.17,8.02-.26,16.04-.42,24.06-.09,4.65-.25,9.29-.39,13.94-.12,3.79-.23,7.58-.4,11.36-.15,3.39-.27,6.78-.61,10.15-.31,3.1-.58,6.8-1.33,9.26s-7.9,1.51-7.98,0-.14-2.68-.2-4.02c-.14-3.18-.26-6.35-.4-9.53-.12-2.85-.25-5.69-.37-8.54-.01-.33,0-.66-.03-.99-.12-1.89-.24-3.77-.36-5.66.12-.26.36-.53.35-.78-.11-3.69-.23-7.38-.38-11.07-.11-2.72-.28-5.45-.38-8.17-.15-4.21-.25-8.42-.41-12.63-.08-2.04-.23-4.07-.36-6.1-.27-4.06-.56-8.12-.81-12.18-.16-2.65-.28-5.31-.4-7.97-.01-.31.03-.63.27-1,.26.43.54.85.78,1.29.63,1.14,1.37,2.17,2.64,2.67,1.86.74,3.35-.31,4.93-1,1.02-.45.87-1.27.67-2.04-.89-3.42-1.8-6.83-2.76-10.23-1.78-6.33-3.61-12.66-5.41-18.98-.09-.31-.13-.64-.19-.97.35-2.63.78-5.26,1.03-7.9.29-3.06.46-6.13.6-9.2.13-3.03-.53-5.97-1.23-8.89-.32-1.32-1.03-1.49-2.13-.6-.91.94-1.83,1.87-2.72,2.83-.56.6-1.09,1.24-1.63,1.86-.14-.12-.33-.21-.4-.36-.87-1.88-1.73-3.76-2.58-5.65-.78-1.74-1.51-3.51-2.34-5.23-.79-1.65-1.67-3.26-2.51-4.9-.06-.11-.05-.25-.08-.38.17-.14.4-.24.5-.42.51-.88.96-1.8,1.47-2.68,1.36-2.31,2.68-4.65,4.14-6.9.9-1.38,2.03-2.62,3.06-3.92.8-.55,1.59-1.11,2.41-1.64,2.28-1.49,4.61-2.82,7.41-3.14,1.08-.12,2.11-.6,3.16-.92,1.45.08,2.91.17,4.36.24.2,0,.4-.07.6-.11.25.33.43.84.77.97,1.86.76,3.83,1.26,5.61,2.16,3.58,1.82,6.69,4.34,9.56,7.14,1.71,1.67,3.27,3.5,4.86,5.29.97,1.1.93,1.39-.27,2.15-1.45.9-2.99,1.66-4.4,2.61-.71.48-1.38,1.16-1.79,1.9-1.14,2.07-.93,4.43-.93,6.66,0,2.81.37,5.63.7,8.44.46,3.92,1,7.84,1.54,11.75.22,1.63.55,3.25.75,4.88.19,1.6.81,3.12.56,4.81-.12.8.38,1.7.63,2.55.09.32.33.62.37.94.13,1.23.14,2.47.32,3.69.21,1.41.59,2.79.82,4.2.26,1.64.41,3.3.67,4.94.41,2.61.88,5.22,1.32,7.83.44,2.6.87,5.2,1.31,7.8.36,2.12.72,4.24,1.07,6.36.36,2.21.69,4.43,1.07,6.64.45,2.63.98,5.24,1.42,7.87.35,2.11.57,4.24.94,6.34.46,2.63,1.07,5.24,1.51,7.87.53,3.11,1.05,6.23,1.41,9.37.65,5.6,1.3,11.2,1.72,16.81.33,4.47.36,8.96.44,13.44.05,2.37.01,9.99.01,10.98Z"/>
        <path class="cls-3" d="m202.27,57.36c-.13-.41-.21-.84-.41-1.21-.33-.61-.35-1.13.09-1.72.31-.4.44-.94.72-1.56.45.51.94.91,1.23,1.42,1.22,2.13,2.42,4.27,3.55,6.44,1.09,2.09,2.16,4.19,3.1,6.35.7,1.6,1.23,3.28,1.78,4.94.95,2.87,1.74,5.79,2.83,8.6.55,1.43.45,2.9.85,4.33.41,1.45.51,2.98.69,4.49.42,3.57.82,7.13,1.18,10.7.13,1.32.12,2.65.22,3.97.18,2.44.39,4.88.6,7.32.13,1.56.26,3.12.39,4.68.2,2.52.36,5.05.62,7.56.09.92.33,1.85.64,2.73.19.52.65.95.99,1.42-.15.12-.32.35-.45.33-1.18-.18-2.42-.25-3.51-.68-.5-.2-.95-1.1-1.03-1.73-.3-2.4-.47-4.82-.62-7.24-.13-2.1-.12-4.21-.25-6.31-.22-3.45-.5-6.9-.75-10.35-.08-1.15-.11-2.3-.21-3.44-.25-3-.34-6.02-.83-8.98-.68-4.13-1.46-8.27-2.56-12.31-1.4-5.13-3.52-10.01-6.13-14.66-.82-1.46-1.47-3.02-2.21-4.53-.11-.23-.35-.39-.52-.58Z"/>
        <path class="cls-3" d="m185.27,27.59c.5,1.29,1,2.58,1.5,3.88-1.58-.41-2.52-1.63-3.44-2.81-1.59-2.05-2.2-4.5-2.82-6.97-.82-3.23-.61-6.44-.06-9.63.41-2.39,1.7-4.4,3.68-5.89,1.29-.97,2.78-.88,4.27-.75.37.03.73.19,1.1.29-.44.06-.89.12-1.33.19-.95.62-2.05,1.09-2.82,1.88-2.33,2.44-3,5.59-3.1,8.79-.06,2.04.26,4.16.8,6.14.46,1.7,1.46,3.26,2.22,4.89Z"/>
        <path class="cls-3" d="m168.98,37.31c-1.03,1.3-2.16,2.53-3.06,3.92-1.46,2.25-2.78,4.59-4.14,6.9-.52.88-.96,1.8-1.47,2.68-.1.18-.33.28-.5.42-.67-1.15-1.33-2.31-2-3.46.03,0,.07,0,.1,0,2.13.21,2.12.21,3.19-1.75,1.66-3.03,3.32-6.08,5.8-8.53,2.14-2.12,4.55-3.88,7.48-4.77.37-.11.77-.11,1.15-.16-1.61.98-3.26,1.9-4.82,2.96-.67.46-1.17,1.18-1.74,1.79Z"/>
        <path class="cls-3" d="m168.98,37.31c.57-.6,1.07-1.33,1.74-1.79,1.56-1.06,3.21-1.98,4.82-2.96.85-.25,1.68-.62,2.55-.74,1.28-.17,2.58-.16,3.88-.22-1.05.32-2.09.79-3.16.92-2.8.32-5.13,1.66-7.41,3.14-.81.53-1.6,1.09-2.41,1.64Z"/>
        <path class="cls-3" d="m145.28,207.54c-.88-2.13-.72-4.4-1.06-6.61-.27-1.77-.5-3.55-.73-5.33-.32-2.56-.63-5.12-.93-7.68-.23-1.94-.44-3.89-.66-5.83-.26-2.22-.53-4.45-.78-6.67-.21-1.91-.39-3.83-.61-5.74-.31-2.69-.68-5.37-.97-8.06-.24-2.19-.37-4.38-.62-6.57-.28-2.42-.63-4.83-.98-7.24-.32-2.16-.51-4.36-1.06-6.47-.61-2.37-1.49-4.69-2.4-6.97-.3-.75-1-1.37-1.6-1.97-.49-.49-1.02-.4-1.68-.03-2.36,1.3-3,3.61-3.73,5.9-.34,1.07-.71,2.14-.93,3.24-.3,1.52-.47,3.06-.69,4.59-.34,2.36-.69,4.73-.99,7.09-.23,1.81-.38,3.63-.59,5.44-.35,3-.68,6.01-1.08,9-.4,3.02-.91,6.02-1.31,9.03-.26,1.94-.35,3.9-.6,5.84-.36,2.83-.83,5.65-1.19,8.47-.24,1.86-.33,3.74-.6,5.6-.35,2.43-.74,4.87-1.22,7.28-.35,1.74-1.08,2.39-2.8,2.5-.94.06-1.92-.08-2.83-.34-1.58-.45-2.03-1.09-2.02-2.74.04-9.59.09-19.18.18-28.77.01-1.35.28-2.7.29-4.05,0-.98-.33-1.97-.33-2.95.01-3,.11-6,.18-8.99.06-2.23.15-4.46.19-6.69.08-4.06.11-8.12.21-12.18.06-2.49.24-4.99.32-7.48.03-.84-.14-1.69-.13-2.54.08-4.65.2-9.29.29-13.94.01-.51-.11-1.03-.09-1.54.12-5.04.26-10.09.39-15.13.02-.73,0-1.45,0-2.18.06-5.02.11-10.03.2-15.05.09-4.41.39-8.82.31-13.23-.05-2.93-.42-5.9-2.45-8.31.27-.52.43-1.19.86-1.5.27-.19,1.24.02,1.37.3.74,1.57,1.54,3.17,1.92,4.84.56,2.5.82,5.07,1.15,7.61.3,2.29.54,4.59.78,6.89.17,1.63.29,3.26.42,4.89.26,3.16.5,6.33.79,9.49.23,2.45.52,4.88.8,7.33.2,1.8,1.12,3.24,2.72,3.94,1.97.87,4.04,1.56,6.13,2.04,1.42.33,2.99.41,4.43.21,2.98-.43,6.05-.66,8.74-2.29.52-.31.66-.63.64-1.17-.03-.8,0-1.6,0-2.39.11-.02.22-.04.33-.06.2.68.41,1.35.59,2.03.26,1.01.41,2.04.74,3.03.63,1.89,2.97,3.49,4.96,3.5.89,0,1.78.02,2.67.03-.07.48-.21.96-.19,1.44.11,2.32.29,4.64.4,6.97.02.51-.23,1.04-.17,1.53.13,1.05.46,2.08.56,3.14.24,2.59.4,5.2.59,7.79.14,1.96.28,3.92.42,5.87.12,1.73.25,3.46.37,5.19.14,1.92.25,3.84.41,5.76.24,2.92.51,5.83.79,8.75.11,1.13.24,2.26.39,3.38.17,1.33.43,2.66.55,4,.1,1.19,0,2.39.08,3.58.16,2.66.41,5.32.55,7.99.12,2.24.14,4.49.22,6.73.04,1.18.12,2.35.2,3.53.2,3.03.43,6.07.61,9.1.1,1.8.12,3.6.18,5.41,0,.16.07.32.08.48.09,2.65.19,5.81-.36,7.92s-9.76,2.12-10.64,0Z"/>
        <path class="cls-4" d="m160.76,81.19c-.59,1.53-1.2,3.06-1.78,4.6-.95,2.51-1.78,5.06-2.84,7.52-.84,1.95-1.94,3.79-2.93,5.68-.26-1.62-.54-3.23-.77-4.86-.51-3.71-1.01-7.43-1.48-11.15-.22-1.72-.35-3.45-.52-5.18.73-3.24,1.47-6.49,2.2-9.73.38.29.79.56,1.15.88,2.24,2.01,3.81,4.5,5.07,7.21.52,1.13,1.08,2.24,1.55,3.39.21.51.24,1.08.35,1.63Z"/>
        <path class="cls-4" d="m171.33,117.47c-.26-.12-.52-.32-.8-.34-2.83-.24-5.33-1.33-7.68-2.84-.43-.28-.55-.51-.23-1.16.78-1.6,1.32-3.32,1.88-5.01.4-1.22.68-2.48,1.03-3.72.39-1.38.79-2.76,1.16-4.14.03-.1-.09-.23-.14-.35.38.9.8,1.78,1.11,2.7.38,1.13.62,2.3.99,3.43,1.1,3.41,2.22,6.82,3.36,10.22.24.71-.28.91-.69,1.22Z"/>
        <path class="cls-3" d="m172.9,86.67c.05-.12.13-.24.13-.36.2-4.51.56-9.02.55-13.53,0-3.28-.26-6.6-1.51-9.73,1.1-.89,1.81-.73,2.13.6.7,2.92,1.36,5.86,1.23,8.89-.14,3.07-.31,6.14-.6,9.2-.25,2.64-.68,5.27-1.03,7.9-.3-.99-.6-1.98-.9-2.98Z"/>
        <path class="cls-3" d="m152.65,68.08c-.73,3.24-1.47,6.49-2.2,9.73-.45-1.81-1.1-3.59-.64-5.51.07-.28.01-.59.01-.88.34-1.24.68-2.49,1.03-3.73.53-.3,1.07-.6,1.71-.96.04.59.07.97.09,1.36Z"/>
        <path class="cls-4" d="m185.27,27.59c-.76-1.62-1.76-3.18-2.22-4.89-.53-1.98-.86-4.1-.8-6.14.1-3.2.77-6.36,3.1-8.79.76-.8,1.87-1.26,2.82-1.88,2.48.46,3.91,2.17,4.74,4.32,2.03,5.24,2.22,10.58.36,15.93-.26.74-.67,1.44-1.12,2.08-1.23,1.75-4.03,1.88-5.74.32-.36-.33-.75-.63-1.13-.94Z"/>
      </g>
      <g>
        <path class="cls-1" d="m67.62,131.12h-4.56c-.85-3.2-2.62-6.62-5.32-10.27-2.69-3.65-5.28-5.65-7.75-6.02-1.26-.16-2.75-.28-4.47-.36-1.72-.08-3.68-.12-5.86-.12h-14.46v34.63h9.93c3,0,5.34-.31,7-.94,1.66-.63,3.09-1.59,4.26-2.89.81-.89,1.55-2.28,2.22-4.16.67-1.88,1.11-3.9,1.31-6.05h4.56v33.9h-4.56c-.12-1.78-.54-3.81-1.25-6.08-.71-2.27-1.47-3.91-2.28-4.92-1.22-1.5-2.75-2.52-4.6-3.07-1.85-.55-4.07-.82-6.67-.82h-9.93v29.66c0,1.34.26,2.53.79,3.58.53,1.05,1.46,1.9,2.79,2.55.61.28,1.92.63,3.95,1.03,2.02.4,3.56.63,4.62.67v4.31H0v-4.31c1.22-.08,2.83-.21,4.86-.39,2.02-.18,3.34-.41,3.95-.7,1.22-.53,2.1-1.31,2.64-2.34s.82-2.28.82-3.74v-62.22c0-1.34-.22-2.52-.67-3.55-.45-1.03-1.38-1.87-2.79-2.52-1.09-.53-2.56-.99-4.4-1.4-1.84-.4-3.31-.65-4.4-.73v-4.31h67.62v21.57Z"/>
        <path class="cls-1" d="m130.45,194.67c-1.9.69-3.58,1.25-5.01,1.67-1.44.43-3.07.64-4.89.64-3.16,0-5.68-.74-7.56-2.22-1.88-1.48-3.09-3.63-3.62-6.47h-.36c-2.63,2.92-5.46,5.15-8.48,6.68-3.02,1.54-6.65,2.31-10.91,2.31-4.5,0-8.19-1.38-11.09-4.13-2.9-2.75-4.34-6.36-4.34-10.81,0-2.31.32-4.37.97-6.2.65-1.82,1.62-3.46,2.92-4.92,1.01-1.22,2.35-2.3,4.01-3.25,1.66-.95,3.22-1.71,4.68-2.28,1.82-.69,5.52-1.96,11.09-3.83,5.57-1.86,9.33-3.32,11.27-4.37v-6.02c0-.53-.11-1.54-.33-3.04-.22-1.5-.7-2.92-1.43-4.25-.81-1.5-1.96-2.8-3.43-3.92-1.48-1.11-3.58-1.67-6.29-1.67-1.86,0-3.6.31-5.19.94-1.6.63-2.72,1.29-3.37,1.97,0,.81.19,2.01.58,3.58.38,1.58.58,3.04.58,4.37,0,1.42-.64,2.71-1.91,3.89-1.28,1.18-3.05,1.76-5.32,1.76-2.03,0-3.51-.72-4.47-2.16-.95-1.44-1.43-3.05-1.43-4.83s.66-3.65,1.97-5.35c1.32-1.7,3.03-3.22,5.13-4.56,1.82-1.13,4.03-2.1,6.62-2.89,2.59-.79,5.12-1.18,7.59-1.18,3.4,0,6.37.23,8.9.7,2.53.47,4.83,1.47,6.9,3.01,2.07,1.5,3.63,3.53,4.71,6.11,1.07,2.57,1.61,5.88,1.61,9.93,0,5.79-.06,10.93-.18,15.4-.12,4.48-.18,9.37-.18,14.67,0,1.58.27,2.84.82,3.77.55.93,1.39,1.72,2.52,2.37.61.36,1.57.57,2.89.61,1.32.04,2.66.06,4.04.06v3.89Zm-21.2-32.08c-3.44,1.01-6.46,2.01-9.05,2.98-2.59.97-5,2.19-7.23,3.65-2.03,1.38-3.63,3.01-4.8,4.9-1.18,1.89-1.76,4.13-1.76,6.73,0,3.37.88,5.84,2.64,7.43s4,2.37,6.71,2.37c2.88,0,5.41-.7,7.59-2.1,2.19-1.4,4.03-3.05,5.53-4.96l.36-21.01Z"/>
        <path class="cls-1" d="m175.96,166.42c1.66,1.46,2.94,3.14,3.83,5.04.89,1.9,1.34,4.23,1.34,6.99,0,5.55-2.08,10.09-6.23,13.61-4.15,3.52-9.53,5.29-16.13,5.29-3.48,0-6.69-.63-9.63-1.88-2.94-1.26-5.03-2.41-6.29-3.46l-1.22,3.95h-4.56l-.61-20.84h4.19c.32,1.59,1.01,3.44,2.07,5.55,1.05,2.11,2.33,4.02,3.83,5.73,1.58,1.79,3.47,3.29,5.68,4.51,2.21,1.22,4.69,1.83,7.44,1.83,3.89,0,6.89-.89,8.99-2.66,2.11-1.77,3.16-4.31,3.16-7.61,0-1.7-.33-3.17-1-4.4-.67-1.23-1.65-2.32-2.95-3.25-1.34-.93-2.98-1.77-4.92-2.52-1.94-.75-4.11-1.49-6.5-2.22-1.9-.57-4.02-1.35-6.35-2.34-2.33-.99-4.32-2.16-5.98-3.49-1.78-1.42-3.24-3.16-4.37-5.23-1.13-2.07-1.7-4.5-1.7-7.29,0-4.9,1.82-9.05,5.47-12.46s8.53-5.1,14.64-5.1c2.35,0,4.75.3,7.2.91,2.45.61,4.45,1.34,5.98,2.19l1.4-3.16h4.37l.91,19.26h-4.19c-.85-4.31-2.68-7.82-5.5-10.52-2.82-2.7-6.25-4.06-10.3-4.06-3.32,0-5.93.84-7.84,2.51-1.9,1.67-2.86,3.69-2.86,6.06,0,1.82.31,3.34.94,4.56.63,1.22,1.57,2.25,2.83,3.1,1.22.81,2.74,1.57,4.59,2.28,1.84.71,4.12,1.51,6.84,2.4,2.67.85,5.19,1.84,7.56,2.98,2.37,1.13,4.32,2.39,5.86,3.77Z"/>
        <path class="cls-1" d="m227.17,193.15c-2.63,1.09-5.12,2.02-7.47,2.76-2.35.75-5.23,1.12-8.63,1.12-5.02,0-8.56-1.27-10.6-3.8-2.05-2.53-3.07-6.11-3.07-10.72v-40.59h-10.81v-5.83h11.06v-18.65h11.06v18.65h17.19v5.83h-17.07v33.48c0,2.51.09,4.61.27,6.29.18,1.68.62,3.15,1.31,4.4.65,1.18,1.62,2.07,2.92,2.67,1.3.61,3.04.91,5.23.91,1.01,0,2.5-.09,4.47-.27,1.96-.18,3.35-.41,4.16-.7v4.44Z"/>
        <path class="cls-1" d="m262.17,195.76h-28.92v-4.01c.93-.08,1.89-.16,2.89-.24.99-.08,1.85-.24,2.58-.48,1.13-.36,1.97-1,2.52-1.91s.82-2.09.82-3.55v-36.96c0-1.29-.29-2.48-.88-3.55-.59-1.07-1.41-1.97-2.46-2.7-.77-.48-1.88-.9-3.34-1.24s-2.79-.56-4.01-.64v-4.01l21.14-1.34.85.85v48.85c0,1.42.27,2.59.81,3.52.54.93,1.4,1.62,2.56,2.07.89.36,1.75.66,2.6.88.84.22,1.79.38,2.84.46v4.01Zm-7.59-84.27c0,2.31-.76,4.32-2.28,6.05-1.52,1.72-3.39,2.58-5.62,2.58-2.07,0-3.86-.82-5.38-2.46s-2.28-3.51-2.28-5.62c0-2.23.76-4.17,2.28-5.83,1.52-1.66,3.31-2.49,5.38-2.49,2.31,0,4.2.78,5.68,2.34,1.48,1.56,2.22,3.37,2.22,5.44Z"/>
      </g>
      <g>
        <path class="cls-1" d="m28.78,212.79v2.5h-11.7v7.1h10.26v2.5h-10.26v10.23h-2.97v-22.34h14.67Z"/>
        <path class="cls-1" d="m45.95,235.06c-.46.27-1.09.41-1.91.41-.69,0-1.24-.19-1.64-.58s-.61-1.02-.61-1.89c-.73.88-1.58,1.51-2.55,1.89-.97.39-2.02.58-3.14.58-.73,0-1.42-.08-2.08-.25s-1.23-.43-1.71-.78c-.48-.35-.86-.82-1.14-1.39s-.42-1.27-.42-2.08c0-.92.16-1.67.47-2.25.31-.58.72-1.06,1.24-1.42s1.1-.64,1.75-.83c.66-.19,1.33-.34,2.02-.47.73-.15,1.42-.26,2.08-.33.66-.07,1.24-.18,1.74-.31.5-.13.9-.33,1.19-.59s.44-.64.44-1.14c0-.58-.11-1.05-.33-1.41-.22-.35-.5-.62-.84-.81-.34-.19-.73-.31-1.16-.38-.43-.06-.85-.09-1.27-.09-1.13,0-2.06.22-2.82.64-.75.43-1.16,1.24-1.22,2.42h-2.66c.04-1,.25-1.85.63-2.53.37-.69.88-1.25,1.5-1.67.63-.43,1.34-.73,2.14-.92.8-.19,1.66-.28,2.58-.28.73,0,1.45.05,2.17.16.72.1,1.37.32,1.96.64.58.32,1.05.78,1.41,1.36.35.58.53,1.34.53,2.28v8.3c0,.62.04,1.08.11,1.37s.32.44.74.44c.23,0,.5-.04.81-.12v2.06Zm-4.32-8.29c-.33.25-.77.43-1.31.54-.54.11-1.11.21-1.71.28-.59.07-1.19.16-1.8.25-.61.09-1.15.24-1.63.45-.48.21-.87.5-1.17.89-.3.38-.45.91-.45,1.57,0,.44.09.8.27,1.1.18.3.41.54.69.73.28.19.61.32.99.4.37.08.77.12,1.19.12.88,0,1.63-.12,2.25-.36s1.14-.54,1.53-.9c.4-.36.69-.76.88-1.18.19-.43.28-.83.28-1.2v-2.71Z"/>
        <path class="cls-1" d="m50.93,218.95v2.38h.06c1.21-1.84,2.95-2.75,5.22-2.75,1,0,1.91.21,2.72.63s1.39,1.13,1.72,2.13c.54-.88,1.26-1.55,2.14-2.03.89-.48,1.86-.72,2.93-.72.81,0,1.55.09,2.21.27.66.18,1.22.45,1.69.83.47.38.83.86,1.1,1.45.26.59.39,1.31.39,2.14v11.86h-2.66v-10.6c0-.5-.04-.97-.13-1.41s-.24-.82-.47-1.14c-.23-.32-.55-.58-.95-.77-.41-.19-.93-.28-1.58-.28-1.31,0-2.35.38-3.1,1.13-.75.75-1.13,1.75-1.13,3v10.07h-2.66v-10.6c0-.52-.05-1-.14-1.44-.09-.44-.26-.82-.48-1.14s-.54-.57-.92-.75c-.39-.18-.88-.27-1.49-.27-.77,0-1.43.16-1.99.47s-1,.69-1.34,1.13-.59.89-.75,1.36c-.16.47-.23.86-.23,1.17v10.07h-2.66v-16.17h2.5Z"/>
        <path class="cls-1" d="m75.26,216.05v-3.25h2.66v3.25h-2.66Zm2.66,2.91v16.17h-2.66v-16.17h2.66Z"/>
        <path class="cls-1" d="m84.87,212.79v22.34h-2.66v-22.34h2.66Z"/>
        <path class="cls-1" d="m89.15,216.05v-3.25h2.66v3.25h-2.66Zm2.66,2.91v16.17h-2.66v-16.17h2.66Z"/>
        <path class="cls-1" d="m107.39,234.09c-1.21.92-2.73,1.38-4.57,1.38-1.29,0-2.41-.21-3.36-.62-.95-.42-1.75-1-2.39-1.75-.65-.75-1.13-1.65-1.45-2.69-.32-1.04-.51-2.18-.55-3.41,0-1.23.19-2.36.56-3.38s.9-1.91,1.58-2.66,1.48-1.33,2.41-1.75,1.94-.63,3.05-.63c1.44,0,2.63.3,3.58.89s1.71,1.35,2.28,2.27c.57.92.97,1.92,1.19,3s.31,2.12.27,3.1h-12.11c-.02.71.06,1.38.25,2.02s.49,1.2.91,1.69c.42.49.95.88,1.6,1.17.65.29,1.41.44,2.28.44,1.13,0,2.05-.26,2.77-.78.72-.52,1.19-1.31,1.42-2.38h2.63c-.36,1.81-1.14,3.18-2.35,4.1Zm-.64-10.39c-.24-.56-.56-1.05-.97-1.45-.41-.41-.89-.73-1.44-.97-.55-.24-1.16-.36-1.83-.36s-1.31.12-1.86.36c-.55.24-1.03.57-1.42.99-.4.42-.71.9-.94,1.45-.23.55-.37,1.14-.41,1.77h9.29c-.04-.63-.18-1.22-.42-1.78Z"/>
        <path class="cls-1" d="m115.24,218.95v2.56h.06c1.11-1.96,2.86-2.94,5.26-2.94,1.06,0,1.95.15,2.66.44.71.29,1.28.7,1.72,1.22s.75,1.14.92,1.86c.18.72.27,1.52.27,2.39v10.64h-2.66v-10.95c0-1-.29-1.79-.88-2.38-.58-.58-1.39-.88-2.41-.88-.81,0-1.52.13-2.11.38-.59.25-1.09.61-1.49,1.06-.4.46-.69,1-.89,1.61-.2.61-.3,1.29-.3,2.02v9.13h-2.66v-16.17h2.5Z"/>
        <path class="cls-1" d="m132.95,212.79v13.23l7.38-7.07h3.57l-6.41,5.88,6.88,10.29h-3.38l-5.54-8.45-2.5,2.32v6.13h-2.66v-22.34h2.66Z"/>
        <path class="cls-1" d="m160.69,235.06c-.46.27-1.09.41-1.91.41-.69,0-1.24-.19-1.64-.58s-.61-1.02-.61-1.89c-.73.88-1.58,1.51-2.55,1.89-.97.39-2.02.58-3.14.58-.73,0-1.42-.08-2.08-.25s-1.23-.43-1.71-.78c-.48-.35-.86-.82-1.14-1.39s-.42-1.27-.42-2.08c0-.92.16-1.67.47-2.25.31-.58.72-1.06,1.24-1.42s1.1-.64,1.75-.83c.66-.19,1.33-.34,2.02-.47.73-.15,1.42-.26,2.08-.33.66-.07,1.24-.18,1.74-.31.5-.13.9-.33,1.19-.59s.44-.64.44-1.14c0-.58-.11-1.05-.33-1.41-.22-.35-.5-.62-.84-.81-.34-.19-.73-.31-1.16-.38-.43-.06-.85-.09-1.27-.09-1.13,0-2.06.22-2.82.64-.75.43-1.16,1.24-1.22,2.42h-2.66c.04-1,.25-1.85.63-2.53.37-.69.88-1.25,1.5-1.67.63-.43,1.34-.73,2.14-.92.8-.19,1.66-.28,2.58-.28.73,0,1.45.05,2.17.16.72.1,1.37.32,1.96.64.58.32,1.05.78,1.41,1.36.35.58.53,1.34.53,2.28v8.3c0,.62.04,1.08.11,1.37s.32.44.74.44c.23,0,.5-.04.81-.12v2.06Zm-4.32-8.29c-.33.25-.77.43-1.31.54-.54.11-1.11.21-1.71.28-.59.07-1.19.16-1.8.25-.61.09-1.15.24-1.63.45-.48.21-.87.5-1.17.89-.3.38-.45.91-.45,1.57,0,.44.09.8.27,1.1.18.3.41.54.69.73.28.19.61.32.99.4.37.08.77.12,1.19.12.88,0,1.63-.12,2.25-.36s1.14-.54,1.53-.9c.4-.36.69-.76.88-1.18.19-.43.28-.83.28-1.2v-2.71Z"/>
        <path class="cls-1" d="m165.98,212.79v22.34h-2.66v-22.34h2.66Z"/>
        <path class="cls-1" d="m181.56,234.09c-1.21.92-2.73,1.38-4.57,1.38-1.29,0-2.41-.21-3.36-.62-.95-.42-1.75-1-2.39-1.75-.65-.75-1.13-1.65-1.45-2.69-.32-1.04-.51-2.18-.55-3.41,0-1.23.19-2.36.56-3.38s.9-1.91,1.58-2.66,1.48-1.33,2.41-1.75,1.94-.63,3.05-.63c1.44,0,2.63.3,3.58.89s1.71,1.35,2.28,2.27c.57.92.97,1.92,1.19,3s.31,2.12.27,3.1h-12.11c-.02.71.06,1.38.25,2.02s.49,1.2.91,1.69c.42.49.95.88,1.6,1.17.65.29,1.41.44,2.28.44,1.13,0,2.05-.26,2.77-.78.72-.52,1.19-1.31,1.42-2.38h2.63c-.36,1.81-1.14,3.18-2.35,4.1Zm-.64-10.39c-.24-.56-.56-1.05-.97-1.45-.41-.41-.89-.73-1.44-.97-.55-.24-1.16-.36-1.83-.36s-1.31.12-1.86.36c-.55.24-1.03.57-1.42.99-.4.42-.71.9-.94,1.45-.23.55-.37,1.14-.41,1.77h9.29c-.04-.63-.18-1.22-.42-1.78Z"/>
        <path class="cls-1" d="m189.41,218.95v2.56h.06c1.11-1.96,2.86-2.94,5.26-2.94,1.06,0,1.95.15,2.66.44.71.29,1.28.7,1.72,1.22s.75,1.14.92,1.86c.18.72.27,1.52.27,2.39v10.64h-2.66v-10.95c0-1-.29-1.79-.88-2.38-.58-.58-1.39-.88-2.41-.88-.81,0-1.52.13-2.11.38-.59.25-1.09.61-1.49,1.06-.4.46-.69,1-.89,1.61-.2.61-.3,1.29-.3,2.02v9.13h-2.66v-16.17h2.5Z"/>
        <path class="cls-1" d="m216.09,235.13v-2.19h-.06c-.44.9-1.13,1.54-2.06,1.94-.94.4-1.97.59-3.1.59-1.25,0-2.34-.23-3.27-.69-.93-.46-1.7-1.07-2.31-1.85-.62-.77-1.08-1.67-1.39-2.69-.31-1.02-.47-2.11-.47-3.25s.15-2.23.45-3.25c.3-1.02.76-1.91,1.38-2.67.61-.76,1.39-1.37,2.31-1.81s2.01-.67,3.24-.67c.42,0,.87.04,1.35.13.48.08.96.22,1.44.42.48.2.93.46,1.36.78.43.32.79.72,1.08,1.2h.06v-8.32h2.66v22.34h-2.66Zm-9.56-5.74c.2.72.5,1.36.91,1.92.41.56.93,1.01,1.56,1.34.64.33,1.38.5,2.24.5s1.66-.18,2.28-.53c.63-.35,1.14-.82,1.53-1.39.4-.57.68-1.22.86-1.96.18-.73.27-1.47.27-2.22,0-.79-.09-1.56-.28-2.3-.19-.74-.48-1.39-.89-1.96s-.93-1.02-1.58-1.36c-.65-.34-1.43-.52-2.35-.52s-1.66.18-2.28.53c-.63.36-1.13.82-1.5,1.41-.38.58-.65,1.25-.81,2s-.25,1.52-.25,2.32c0,.75.1,1.49.3,2.2Z"/>
        <path class="cls-1" d="m234.3,234.09c-1.21.92-2.73,1.38-4.57,1.38-1.29,0-2.41-.21-3.36-.62-.95-.42-1.75-1-2.39-1.75-.65-.75-1.13-1.65-1.45-2.69-.32-1.04-.51-2.18-.55-3.41,0-1.23.19-2.36.56-3.38s.9-1.91,1.58-2.66,1.48-1.33,2.41-1.75,1.94-.63,3.05-.63c1.44,0,2.63.3,3.58.89s1.71,1.35,2.28,2.27c.57.92.97,1.92,1.19,3s.31,2.12.27,3.1h-12.11c-.02.71.06,1.38.25,2.02s.49,1.2.91,1.69c.42.49.95.88,1.6,1.17.65.29,1.41.44,2.28.44,1.13,0,2.05-.26,2.77-.78.72-.52,1.19-1.31,1.42-2.38h2.63c-.36,1.81-1.14,3.18-2.35,4.1Zm-.64-10.39c-.24-.56-.56-1.05-.97-1.45-.41-.41-.89-.73-1.44-.97-.55-.24-1.16-.36-1.83-.36s-1.31.12-1.86.36c-.55.24-1.03.57-1.42.99-.4.42-.71.9-.94,1.45-.23.55-.37,1.14-.41,1.77h9.29c-.04-.63-.18-1.22-.42-1.78Z"/>
        <path class="cls-1" d="m242.06,218.95v3.41h.06c.65-1.31,1.44-2.28,2.38-2.91.94-.62,2.13-.92,3.57-.88v2.82c-1.06,0-1.97.15-2.72.44-.75.29-1.36.72-1.81,1.28-.46.56-.79,1.25-1,2.05-.21.8-.31,1.72-.31,2.77v7.19h-2.66v-16.17h2.5Z"/>
      </g>
    </g>
  </g>
</svg>