<?xml version="1.0" encoding="UTF-8"?>
<svg id="Ebene_2" data-name="Ebene 2" xmlns="http://www.w3.org/2000/svg" viewBox="0 0 138.62 71.59">
  <defs>
    <style>
      .cls-10 {
        fill: #82368c;
      }
    </style>
  </defs>
  <g id="Ebene_1-2" data-name="Ebene 1">
    <g>
      <rect class="cls-10" y="49.42" width="137.52" height="3.47"/>
      <path class="cls-10" d="m31.37,8.11H9.19v10.18h19.42v7.69H9.19v18.55H0V.33h31.37v7.78Z"/>
      <path class="cls-10" d="m38.09,15.34c2.26-2.88,6.14-4.32,11.65-4.32,3.58,0,6.76.71,9.55,2.13,2.78,1.42,4.17,4.1,4.17,8.05v15.01c0,1.04.02,2.3.06,3.78.06,1.12.23,1.88.51,2.28.28.4.7.73,1.26.99v1.26h-9.31c-.26-.66-.44-1.28-.54-1.86-.1-.58-.18-1.24-.24-1.98-1.18,1.28-2.54,2.37-4.08,3.27-1.84,1.06-3.92,1.59-6.24,1.59-2.96,0-5.41-.85-7.34-2.54-1.93-1.69-2.9-4.09-2.9-7.19,0-4.02,1.55-6.93,4.65-8.74,1.7-.98,4.2-1.68,7.5-2.1l2.91-.36c1.58-.2,2.71-.45,3.39-.75,1.22-.52,1.83-1.33,1.83-2.43,0-1.34-.47-2.27-1.4-2.78s-2.3-.77-4.1-.77c-2.02,0-3.45.5-4.29,1.5-.6.74-1,1.74-1.2,3h-8.26c.18-2.86.98-5.21,2.4-7.05Zm6.36,22.99c.8.66,1.78.99,2.94.99,1.84,0,3.54-.54,5.09-1.62,1.55-1.08,2.36-3.05,2.42-5.91v-3.18c-.54.34-1.09.62-1.64.83-.55.21-1.31.41-2.27.59l-1.92.36c-1.8.32-3.09.71-3.87,1.17-1.32.78-1.98,1.99-1.98,3.63,0,1.46.41,2.51,1.23,3.15Z"/>
      <path class="cls-10" d="m94.6,13.3c2.56,1.64,4.03,4.46,4.41,8.47h-8.56c-.12-1.1-.43-1.97-.93-2.61-.94-1.16-2.54-1.74-4.8-1.74-1.86,0-3.19.29-3.98.87-.79.58-1.19,1.26-1.19,2.04,0,.98.42,1.69,1.26,2.13.84.46,3.81,1.25,8.92,2.37,3.4.8,5.95,2.01,7.65,3.63,1.68,1.64,2.52,3.69,2.52,6.15,0,3.24-1.21,5.89-3.62,7.94-2.41,2.05-6.14,3.08-11.18,3.08s-8.94-1.09-11.39-3.26c-2.45-2.17-3.68-4.94-3.68-8.3h8.68c.18,1.52.57,2.6,1.17,3.24,1.06,1.14,3.02,1.71,5.88,1.71,1.68,0,3.02-.25,4.01-.75.99-.5,1.49-1.25,1.49-2.25s-.4-1.69-1.2-2.19c-.8-.5-3.77-1.36-8.92-2.58-3.7-.92-6.31-2.07-7.84-3.45-1.52-1.36-2.28-3.32-2.28-5.88,0-3.02,1.19-5.62,3.56-7.79,2.37-2.17,5.71-3.26,10.01-3.26s7.41.81,10,2.43Z"/>
      <path class="cls-10" d="m122.23,38.43v6.39l-4.05.15c-4.04.14-6.8-.56-8.29-2.1-.96-.98-1.44-2.49-1.44-4.53v-20.14h-4.56v-6.09h4.56V2.97h8.47v9.13h5.31v6.09h-5.31v17.29c0,1.34.17,2.18.51,2.51.34.33,1.38.5,3.12.5.26,0,.54,0,.83-.02.29-.01.57-.03.86-.05Z"/>
      <path class="cls-10" d="m137.52,0v7.9h-8.68V0h8.68Zm0,11.8v32.72h-8.68V11.8h8.68Z"/>
      <path class="cls-10" d="m0,58.44h8.89v1.57H1.74v3.89h6.29v1.53H1.74v5.83H0v-12.81Z"/>
      <path class="cls-10" d="m15.34,65.6c.36-.05.6-.2.72-.45.07-.14.1-.34.1-.6,0-.54-.19-.93-.57-1.17-.38-.24-.92-.36-1.63-.36-.82,0-1.4.22-1.74.67-.19.25-.32.61-.37,1.1h-1.47c.03-1.15.4-1.96,1.12-2.41.72-.45,1.55-.68,2.5-.68,1.1,0,1.99.21,2.67.63.68.42,1.02,1.07,1.02,1.95v5.38c0,.16.03.29.1.39s.21.15.42.15c.07,0,.15,0,.24-.01.09,0,.18-.02.28-.04v1.16c-.24.07-.43.11-.56.13-.13.02-.3.03-.52.03-.54,0-.93-.19-1.18-.58-.13-.2-.22-.49-.27-.86-.32.42-.78.78-1.38,1.09-.6.31-1.26.46-1.98.46-.87,0-1.57-.26-2.12-.79-.55-.53-.82-1.18-.82-1.97,0-.87.27-1.54.81-2.01s1.25-.77,2.13-.88l2.5-.31Zm-3.31,4.24c.33.26.72.39,1.18.39.55,0,1.09-.13,1.6-.38.87-.42,1.31-1.12,1.31-2.08v-1.26c-.19.12-.44.22-.74.31-.3.08-.6.14-.89.17l-.95.12c-.57.08-1,.19-1.28.36-.49.27-.73.71-.73,1.3,0,.45.17.81.5,1.07Z"/>
      <path class="cls-10" d="m20.6,61.91h1.55v1.33c.37-.46.71-.79,1.01-1,.52-.35,1.1-.53,1.76-.53.74,0,1.34.18,1.8.55.26.21.49.52.7.92.35-.5.76-.87,1.23-1.11.47-.24,1-.36,1.59-.36,1.26,0,2.11.45,2.56,1.36.24.49.37,1.15.37,1.97v6.22h-1.63v-6.49c0-.62-.16-1.05-.47-1.28-.31-.23-.69-.35-1.14-.35-.62,0-1.15.21-1.59.62-.44.41-.67,1.1-.67,2.07v5.43h-1.6v-6.1c0-.63-.08-1.1-.23-1.39-.24-.44-.68-.65-1.33-.65-.59,0-1.13.23-1.62.69-.49.46-.73,1.29-.73,2.49v4.95h-1.57v-9.34Z"/>
      <path class="cls-10" d="m35.81,58.44h1.6v1.78h-1.6v-1.78Zm0,3.51h1.6v9.3h-1.6v-9.3Z"/>
      <path class="cls-10" d="m40.1,58.44h1.57v12.81h-1.57v-12.81Z"/>
      <path class="cls-10" d="m44.33,58.44h1.6v1.78h-1.6v-1.78Zm0,3.51h1.6v9.3h-1.6v-9.3Z"/>
      <path class="cls-10" d="m54.43,62.17c.62.31,1.09.71,1.41,1.21.31.47.52,1.02.62,1.65.09.43.14,1.12.14,2.06h-6.79c.03.95.25,1.71.67,2.29s1.06.86,1.93.86c.81,0,1.46-.27,1.95-.81.27-.32.46-.68.58-1.1h1.54c-.04.34-.18.73-.41,1.15-.23.42-.49.77-.77,1.03-.47.47-1.06.78-1.76.94-.38.09-.8.14-1.27.14-1.16,0-2.14-.42-2.94-1.27s-1.2-2.03-1.2-3.55.4-2.72,1.21-3.65,1.87-1.4,3.17-1.4c.66,0,1.3.16,1.92.47Zm.56,3.67c-.06-.68-.21-1.22-.44-1.63-.43-.76-1.14-1.13-2.14-1.13-.71,0-1.31.26-1.8.78-.48.52-.74,1.18-.77,1.98h5.15Z"/>
      <path class="cls-10" d="m58.89,61.91h1.49v1.33c.44-.55.91-.94,1.4-1.18s1.04-.36,1.65-.36c1.33,0,2.22.46,2.69,1.39.26.51.38,1.23.38,2.17v5.99h-1.6v-5.89c0-.57-.08-1.03-.25-1.38-.28-.58-.79-.87-1.52-.87-.37,0-.68.04-.92.11-.43.13-.81.38-1.13.77-.26.31-.43.63-.51.96-.08.33-.12.8-.12,1.41v4.89h-1.57v-9.34Z"/>
      <path class="cls-10" d="m69.12,58.44h1.51v7.44l4.03-3.97h2.01l-3.59,3.47,3.79,5.87h-2.01l-2.94-4.75-1.29,1.25v3.51h-1.51v-12.81Z"/>
      <path class="cls-10" d="m83.36,65.6c.36-.05.6-.2.72-.45.07-.14.1-.34.1-.6,0-.54-.19-.93-.57-1.17-.38-.24-.92-.36-1.63-.36-.82,0-1.4.22-1.74.67-.19.25-.32.61-.37,1.1h-1.47c.03-1.15.4-1.96,1.12-2.41.72-.45,1.55-.68,2.5-.68,1.1,0,1.99.21,2.67.63.68.42,1.02,1.07,1.02,1.95v5.38c0,.16.03.29.1.39s.21.15.42.15c.07,0,.15,0,.24-.01.09,0,.18-.02.28-.04v1.16c-.24.07-.43.11-.56.13-.13.02-.3.03-.52.03-.54,0-.93-.19-1.18-.58-.13-.2-.22-.49-.27-.86-.32.42-.78.78-1.38,1.09-.6.31-1.26.46-1.98.46-.87,0-1.57-.26-2.12-.79-.55-.53-.82-1.18-.82-1.97,0-.87.27-1.54.81-2.01s1.25-.77,2.13-.88l2.5-.31Zm-3.31,4.24c.33.26.72.39,1.18.39.55,0,1.09-.13,1.6-.38.87-.42,1.31-1.12,1.31-2.08v-1.26c-.19.12-.44.22-.74.31-.3.08-.6.14-.89.17l-.95.12c-.57.08-1,.19-1.28.36-.49.27-.73.71-.73,1.3,0,.45.17.81.5,1.07Z"/>
      <path class="cls-10" d="m88.63,58.44h1.57v12.81h-1.57v-12.81Z"/>
      <path class="cls-10" d="m98.69,62.17c.62.31,1.09.71,1.41,1.21.31.47.52,1.02.62,1.65.09.43.14,1.12.14,2.06h-6.79c.03.95.25,1.71.67,2.29s1.06.86,1.93.86c.81,0,1.46-.27,1.95-.81.27-.32.46-.68.58-1.1h1.54c-.04.34-.18.73-.41,1.15-.23.42-.49.77-.77,1.03-.47.47-1.06.78-1.76.94-.38.09-.8.14-1.27.14-1.16,0-2.14-.42-2.94-1.27s-1.2-2.03-1.2-3.55.4-2.72,1.21-3.65,1.87-1.4,3.17-1.4c.66,0,1.3.16,1.92.47Zm.56,3.67c-.06-.68-.21-1.22-.44-1.63-.43-.76-1.14-1.13-2.14-1.13-.71,0-1.31.26-1.8.78-.48.52-.74,1.18-.77,1.98h5.15Z"/>
      <path class="cls-10" d="m103.16,61.91h1.49v1.33c.44-.55.91-.94,1.4-1.18s1.04-.36,1.65-.36c1.33,0,2.22.46,2.69,1.39.26.51.38,1.23.38,2.17v5.99h-1.6v-5.89c0-.57-.08-1.03-.25-1.38-.28-.58-.79-.87-1.52-.87-.37,0-.68.04-.92.11-.43.13-.81.38-1.13.77-.26.31-.43.63-.51.96-.08.33-.12.8-.12,1.41v4.89h-1.57v-9.34Z"/>
      <path class="cls-10" d="m118.65,62.2c.28.17.59.48.95.92v-4.72h1.51v12.86h-1.41v-1.3c-.37.58-.8.99-1.29,1.25s-1.07.38-1.71.38c-1.04,0-1.93-.44-2.69-1.31-.76-.87-1.14-2.04-1.14-3.49,0-1.36.35-2.54,1.04-3.54.69-1,1.68-1.5,2.97-1.5.71,0,1.31.15,1.79.45Zm-3.5,7c.42.67,1.1,1.01,2.03,1.01.72,0,1.32-.31,1.78-.94.47-.62.7-1.52.7-2.69s-.24-2.05-.72-2.62c-.48-.57-1.07-.85-1.78-.85-.79,0-1.42.3-1.91.91-.49.61-.73,1.49-.73,2.67,0,1,.21,1.84.63,2.51Z"/>
      <path class="cls-10" d="m129.58,62.17c.62.31,1.09.71,1.41,1.21.31.47.52,1.02.62,1.65.09.43.14,1.12.14,2.06h-6.79c.03.95.25,1.71.67,2.29s1.06.86,1.93.86c.81,0,1.46-.27,1.95-.81.27-.32.46-.68.58-1.1h1.54c-.04.34-.18.73-.41,1.15-.23.42-.49.77-.77,1.03-.47.47-1.06.78-1.76.94-.38.09-.8.14-1.27.14-1.16,0-2.14-.42-2.94-1.27s-1.2-2.03-1.2-3.55.4-2.72,1.21-3.65,1.87-1.4,3.17-1.4c.66,0,1.3.16,1.92.47Zm.56,3.67c-.06-.68-.21-1.22-.44-1.63-.43-.76-1.14-1.13-2.14-1.13-.71,0-1.31.26-1.8.78-.48.52-.74,1.18-.77,1.98h5.15Z"/>
      <path class="cls-10" d="m134.07,61.91h1.49v1.61c.12-.31.42-.7.9-1.15.48-.45,1.03-.68,1.65-.68.03,0,.08,0,.15,0,.07,0,.19.02.36.03v1.66c-.09-.02-.18-.03-.26-.03-.08,0-.16,0-.26,0-.79,0-1.4.25-1.82.76-.42.51-.64,1.09-.64,1.76v5.37h-1.57v-9.34Z"/>
    </g>
  </g>
</svg>