<?xml version="1.0" encoding="UTF-8"?>
<svg id="Ebene_2" data-name="Ebene 2" xmlns="http://www.w3.org/2000/svg" viewBox="0 0 202.97 93.4">
  <defs>
    <style>
      .cls-11 {
        fill: #701a75;
      }
    </style>
  </defs>
  <g id="Ebene_1-5" data-name="Ebene 1">
    <g>
      <rect class="cls-11" x="65.01" y="64.59" width="137.52" height="3.47"/>
      <path class="cls-11" d="m97.38,23.27h-22.18v10.18h19.42v7.69h-19.42v18.55h-9.19V15.5h31.37v7.78Z"/>
      <path class="cls-11" d="m102.11,30.51c2.26-2.88,6.14-4.32,11.65-4.32,3.58,0,6.76.71,9.55,2.13,2.78,1.42,4.17,4.1,4.17,8.05v15.01c0,1.04.02,2.3.06,3.78.06,1.12.23,1.88.51,2.28.28.4.7.73,1.26.99v1.26h-9.31c-.26-.66-.44-1.28-.54-1.86-.1-.58-.18-1.24-.24-1.98-1.18,1.28-2.54,2.37-4.08,3.27-1.84,1.06-3.92,1.59-6.24,1.59-2.96,0-5.41-.85-7.34-2.54-1.93-1.69-2.9-4.09-2.9-7.19,0-4.02,1.55-6.93,4.65-8.74,1.7-.98,4.2-1.68,7.5-2.1l2.91-.36c1.58-.2,2.71-.45,3.39-.75,1.22-.52,1.83-1.33,1.83-2.43,0-1.34-.47-2.27-1.4-2.78s-2.3-.77-4.1-.77c-2.02,0-3.45.5-4.29,1.5-.6.74-1,1.74-1.2,3h-8.26c.18-2.86.98-5.21,2.4-7.05Zm6.36,22.99c.8.66,1.78.99,2.94.99,1.84,0,3.54-.54,5.09-1.62,1.55-1.08,2.36-3.05,2.42-5.91v-3.18c-.54.34-1.09.62-1.64.83-.55.21-1.31.41-2.27.59l-1.92.36c-1.8.32-3.09.71-3.87,1.17-1.32.78-1.98,1.99-1.98,3.63,0,1.46.41,2.51,1.23,3.15Z"/>
      <path class="cls-11" d="m159.61,28.47c2.56,1.64,4.03,4.46,4.41,8.47h-8.56c-.12-1.1-.43-1.97-.93-2.61-.94-1.16-2.54-1.74-4.8-1.74-1.86,0-3.19.29-3.98.87-.79.58-1.19,1.26-1.19,2.04,0,.98.42,1.69,1.26,2.13.84.46,3.81,1.25,8.92,2.37,3.4.8,5.95,2.01,7.65,3.63,1.68,1.64,2.52,3.69,2.52,6.15,0,3.24-1.21,5.89-3.62,7.94-2.41,2.05-6.14,3.08-11.18,3.08s-8.94-1.09-11.39-3.26c-2.45-2.17-3.68-4.94-3.68-8.3h8.68c.18,1.52.57,2.6,1.17,3.24,1.06,1.14,3.02,1.71,5.88,1.71,1.68,0,3.02-.25,4.01-.75.99-.5,1.49-1.25,1.49-2.25s-.4-1.69-1.2-2.19c-.8-.5-3.77-1.36-8.92-2.58-3.7-.92-6.31-2.07-7.84-3.45-1.52-1.36-2.28-3.32-2.28-5.88,0-3.02,1.19-5.62,3.56-7.79,2.37-2.17,5.71-3.26,10.01-3.26s7.41.81,10,2.43Z"/>
      <path class="cls-11" d="m187.24,53.59v6.39l-4.05.15c-4.04.14-6.8-.56-8.29-2.1-.96-.98-1.44-2.49-1.44-4.53v-20.14h-4.56v-6.09h4.56v-9.13h8.47v9.13h5.31v6.09h-5.31v17.29c0,1.34.17,2.18.51,2.51.34.33,1.38.5,3.12.5.26,0,.54,0,.83-.02.29-.01.57-.03.86-.05Z"/>
      <path class="cls-11" d="m202.53,15.17v7.9h-8.68v-7.9h8.68Zm0,11.8v32.72h-8.68V26.97h8.68Z"/>
      <path class="cls-11" d="m101.42,74.31h6.51v1.15h-5.24v2.85h4.61v1.12h-4.61v4.27h-1.27v-9.39Z"/>
      <path class="cls-11" d="m112.66,79.56c.26-.03.44-.14.53-.33.05-.1.08-.25.08-.44,0-.39-.14-.68-.42-.86-.28-.18-.68-.27-1.2-.27-.6,0-1.02.16-1.28.49-.14.18-.23.45-.27.8h-1.07c.02-.85.29-1.43.82-1.77.53-.33,1.13-.5,1.83-.5.8,0,1.46.15,1.96.46.5.31.75.78.75,1.43v3.94c0,.12.02.22.07.29s.15.11.31.11c.05,0,.11,0,.17,0,.06,0,.13-.02.2-.03v.85c-.18.05-.32.08-.41.1-.09.01-.22.02-.38.02-.4,0-.68-.14-.86-.42-.09-.15-.16-.36-.2-.63-.23.31-.57.57-1.01.8-.44.23-.92.34-1.45.34-.63,0-1.15-.19-1.56-.58-.4-.38-.6-.87-.6-1.45,0-.63.2-1.13.59-1.47s.92-.56,1.56-.64l1.83-.23Zm-2.42,3.11c.24.19.53.29.86.29.4,0,.8-.09,1.18-.28.64-.31.96-.82.96-1.52v-.92c-.14.09-.32.16-.54.22-.22.06-.44.1-.65.13l-.7.09c-.42.06-.73.14-.94.26-.36.2-.53.52-.53.96,0,.33.12.59.36.78Z"/>
      <path class="cls-11" d="m116.51,76.86h1.14v.97c.27-.34.52-.58.74-.73.38-.26.81-.39,1.29-.39.55,0,.98.13,1.32.4.19.15.36.38.51.68.26-.37.56-.64.9-.81.35-.18.73-.27,1.16-.27.92,0,1.55.33,1.88,1,.18.36.27.84.27,1.44v4.56h-1.19v-4.75c0-.46-.11-.77-.34-.94-.23-.17-.51-.26-.83-.26-.45,0-.84.15-1.17.45-.33.3-.49.81-.49,1.51v3.98h-1.17v-4.47c0-.46-.06-.8-.17-1.02-.17-.32-.5-.48-.98-.48-.43,0-.83.17-1.19.5-.36.34-.53.95-.53,1.83v3.63h-1.15v-6.84Z"/>
      <path class="cls-11" d="m127.65,74.31h1.17v1.3h-1.17v-1.3Zm0,2.57h1.17v6.81h-1.17v-6.81Z"/>
      <path class="cls-11" d="m130.79,74.31h1.15v9.39h-1.15v-9.39Z"/>
      <path class="cls-11" d="m133.89,74.31h1.17v1.3h-1.17v-1.3Zm0,2.57h1.17v6.81h-1.17v-6.81Z"/>
      <path class="cls-11" d="m141.29,77.04c.45.23.8.52,1.03.89.23.35.38.75.46,1.21.07.31.1.82.1,1.51h-4.98c.02.7.18,1.25.49,1.68s.78.63,1.41.63c.6,0,1.07-.2,1.43-.6.2-.23.34-.5.42-.8h1.13c-.03.25-.13.53-.3.84-.17.31-.36.56-.56.76-.35.34-.78.57-1.29.69-.27.07-.59.1-.93.1-.85,0-1.56-.31-2.15-.93s-.88-1.49-.88-2.6.3-1.99.89-2.68,1.37-1.03,2.32-1.03c.48,0,.95.11,1.4.34Zm.41,2.69c-.05-.5-.15-.9-.32-1.19-.31-.55-.83-.83-1.56-.83-.52,0-.96.19-1.32.57-.35.38-.54.87-.56,1.45h3.77Z"/>
      <path class="cls-11" d="m144.56,76.86h1.09v.97c.32-.4.67-.69,1.03-.86s.76-.26,1.21-.26c.97,0,1.63.34,1.97,1.02.19.37.28.9.28,1.59v4.39h-1.17v-4.31c0-.42-.06-.75-.19-1.01-.2-.43-.58-.64-1.11-.64-.27,0-.5.03-.67.08-.31.09-.59.28-.83.56-.19.23-.32.46-.37.7-.06.24-.09.58-.09,1.03v3.58h-1.15v-6.84Z"/>
      <path class="cls-11" d="m152.06,74.31h1.11v5.45l2.95-2.91h1.47l-2.63,2.54,2.78,4.3h-1.47l-2.15-3.48-.94.91v2.57h-1.11v-9.39Z"/>
      <path class="cls-11" d="m162.49,79.56c.26-.03.44-.14.53-.33.05-.1.08-.25.08-.44,0-.39-.14-.68-.42-.86-.28-.18-.68-.27-1.2-.27-.6,0-1.02.16-1.28.49-.14.18-.23.45-.27.8h-1.07c.02-.85.29-1.43.82-1.77.53-.33,1.13-.5,1.83-.5.8,0,1.46.15,1.96.46.5.31.75.78.75,1.43v3.94c0,.12.02.22.07.29s.15.11.31.11c.05,0,.11,0,.17,0,.06,0,.13-.02.2-.03v.85c-.18.05-.32.08-.41.1-.09.01-.22.02-.38.02-.4,0-.68-.14-.86-.42-.09-.15-.16-.36-.2-.63-.23.31-.57.57-1.01.8-.44.23-.92.34-1.45.34-.63,0-1.15-.19-1.56-.58-.4-.38-.6-.87-.6-1.45,0-.63.2-1.13.59-1.47s.92-.56,1.56-.64l1.83-.23Zm-2.42,3.11c.24.19.53.29.86.29.4,0,.8-.09,1.18-.28.64-.31.96-.82.96-1.52v-.92c-.14.09-.32.16-.54.22-.22.06-.44.1-.65.13l-.7.09c-.42.06-.73.14-.94.26-.36.2-.53.52-.53.96,0,.33.12.59.36.78Z"/>
      <path class="cls-11" d="m166.35,74.31h1.15v9.39h-1.15v-9.39Z"/>
      <path class="cls-11" d="m173.72,77.04c.45.23.8.52,1.03.89.23.35.38.75.46,1.21.07.31.1.82.1,1.51h-4.98c.02.7.18,1.25.49,1.68s.78.63,1.41.63c.6,0,1.07-.2,1.43-.6.2-.23.34-.5.42-.8h1.13c-.03.25-.13.53-.3.84-.17.31-.36.56-.56.76-.35.34-.78.57-1.29.69-.27.07-.59.1-.93.1-.85,0-1.56-.31-2.15-.93s-.88-1.49-.88-2.6.3-1.99.89-2.68,1.37-1.03,2.32-1.03c.48,0,.95.11,1.4.34Zm.41,2.69c-.05-.5-.15-.9-.32-1.19-.31-.55-.83-.83-1.56-.83-.52,0-.96.19-1.32.57-.35.38-.54.87-.56,1.45h3.77Z"/>
      <path class="cls-11" d="m176.99,76.86h1.09v.97c.32-.4.67-.69,1.03-.86s.76-.26,1.21-.26c.97,0,1.63.34,1.97,1.02.19.37.28.9.28,1.59v4.39h-1.17v-4.31c0-.42-.06-.75-.19-1.01-.2-.43-.58-.64-1.11-.64-.27,0-.5.03-.67.08-.31.09-.59.28-.83.56-.19.23-.32.46-.37.7-.06.24-.09.58-.09,1.03v3.58h-1.15v-6.84Z"/>
      <path class="cls-11" d="m188.34,77.07c.2.13.43.35.69.67v-3.46h1.11v9.42h-1.03v-.95c-.27.42-.58.73-.95.91s-.78.28-1.25.28c-.76,0-1.42-.32-1.97-.96-.56-.64-.83-1.49-.83-2.56,0-1,.25-1.86.76-2.59.51-.73,1.23-1.1,2.17-1.1.52,0,.96.11,1.31.33Zm-2.57,5.13c.31.49.81.74,1.49.74.53,0,.96-.23,1.31-.69.34-.46.51-1.11.51-1.97s-.18-1.5-.53-1.92c-.35-.41-.79-.62-1.3-.62-.58,0-1.04.22-1.4.66-.36.44-.54,1.09-.54,1.96,0,.73.15,1.35.46,1.84Z"/>
      <path class="cls-11" d="m196.35,77.04c.45.23.8.52,1.03.89.23.35.38.75.46,1.21.07.31.1.82.1,1.51h-4.98c.02.7.18,1.25.49,1.68s.78.63,1.41.63c.6,0,1.07-.2,1.43-.6.2-.23.34-.5.42-.8h1.13c-.03.25-.13.53-.3.84-.17.31-.36.56-.56.76-.35.34-.78.57-1.29.69-.27.07-.59.1-.93.1-.85,0-1.56-.31-2.15-.93s-.88-1.49-.88-2.6.3-1.99.89-2.68,1.37-1.03,2.32-1.03c.48,0,.95.11,1.4.34Zm.41,2.69c-.05-.5-.15-.9-.32-1.19-.31-.55-.83-.83-1.56-.83-.52,0-.96.19-1.32.57-.35.38-.54.87-.56,1.45h3.77Z"/>
      <path class="cls-11" d="m199.64,76.86h1.09v1.18c.09-.23.31-.51.66-.84.35-.33.75-.5,1.21-.5.02,0,.06,0,.11,0,.05,0,.14.01.26.03v1.21c-.07-.01-.13-.02-.19-.03-.06,0-.12,0-.19,0-.58,0-1.02.19-1.34.56-.31.37-.47.8-.47,1.29v3.94h-1.15v-6.84Z"/>
      <path class="cls-11" d="m52.5,28.97c0-.44,0-.89-.03-1.35C51.93,15.75,45.26,1.43,35.88.1c-3.29-.47-6.51.73-9.44,2.76,2.65-.76,5.25-.92,7.58-.32,5.85,1.5,9.52,8.76,16.85,23.28.59,1.16,1.13,2.24,1.64,3.26v.11c0,.97.36,1.85.28,2.76.92,3.17,1.1,6.41,1.24,9.52.67,14.64-8.14,22.39-10.78,31.62,3.83,7.12,11.15,10.3,13.57,13.3,2.06-.66,3.43-1.62,3.8-2.94,1.06-3.67-6.89-5.29-8.87-13.75-2.22-9.52,6.39-13.84,5.99-25.94-.13-4-1.8-7.73-5.11-14.35"/>
      <path class="cls-11" d="m.09,74.59c-1.1-5.49,7.82-7.64,10.86-17.07,3.92-12.14-7.62-18.59-5.54-31.48C7.11,15.5,17.13,5.51,26.43,2.86c-5.27,3.64-9.61,9.98-11.77,14.26-6.19,12.25-2.37,29.9-2.37,29.9.16-4.97,1.16-10.6,3.91-16.05,3.37-6.66,12.01-18.32,21.22-17.01,6.92.98,12.82,8.72,14.96,17.94s-14.34,23.47-10.84,36.89c.41,1.58.99,3.01,1.69,4.31-.84,2.94-1.06,6.03-.14,9.55.48,1.85,1.2,3.48,2.06,4.95,4.72.07,8.84-.29,11.65-1.19.67.84.97,1.66.7,2.56-.89,2.94-7.17,4.28-15.16,4.45-2.44-2.52-4.98-5.61-7.31-9.5-3.46-5.75-8.51-14.17-6.93-23.74,1.9-11.53,11.69-14.18,10.71-23.32-.67-6.22-5.99-12.37-10.5-12.18-5.82.24-10.76,11.03-11.13,20.16-.27,6.54,1.93,8.97,7.56,24.37,4.52,12.37,7.05,19.45,6.41,23.78-13.68-1.21-26.65-6.33-28.05-9.28s-2.54-6.71-3.02-9.11Z"/>
    </g>
  </g>
</svg>